<svg width="184" height="40" viewBox="0 0 184 40" fill="none" xmlns="http://www.w3.org/2000/svg">
<path d="M7.01616 6.48322H0V39.3257H1.39175H7.01616H17.6671V33.3044H7.01616V6.48322Z" fill="#FE7B5E"/>
<path d="M61.658 26.4412C60.7971 25.8099 59.8502 25.2695 58.8219 24.8247C57.7936 24.3751 56.7462 23.9877 55.6893 23.653C54.661 23.2895 53.7714 22.9499 53.0253 22.6342C52.2792 22.3186 51.7053 21.9551 51.3083 21.539C50.9114 21.1277 50.7105 20.6016 50.7105 19.9703C50.7105 19.2768 50.9736 18.7029 51.5044 18.2533C52.0353 17.8085 52.8005 17.5838 53.7953 17.5838C54.6897 17.5838 55.431 17.7894 56.0097 18.2055C56.5884 18.6216 57.0188 19.186 57.301 19.8986C57.5832 20.6112 57.6932 21.4338 57.6262 22.3616L63.5998 21.4673C63.7672 19.4107 63.4419 17.7272 62.6289 16.4168C61.8158 15.1063 60.6537 14.1211 59.1471 13.4563C57.6358 12.7915 55.8901 12.4615 53.8958 12.4615C51.9014 12.4615 50.0792 12.7868 48.6205 13.4324C47.1618 14.0781 46.0426 14.9724 45.2631 16.1203C44.4835 17.2633 44.0913 18.6312 44.0913 20.2238C44.0913 21.4529 44.3209 22.5051 44.7896 23.3851C45.2535 24.2651 45.8944 25.0017 46.7074 25.5995C47.5205 26.1973 48.434 26.7043 49.4431 27.1156C50.457 27.5317 51.5236 27.9191 52.6523 28.2874C53.7475 28.6508 54.6753 29.0191 55.4406 29.3826C56.2058 29.7461 56.7845 30.1717 57.1814 30.65C57.5784 31.133 57.7793 31.7356 57.7793 32.4674C57.7793 33.2948 57.4875 33.9165 56.9088 34.3326C56.3301 34.7487 55.5219 34.9544 54.4984 34.9544C53.4749 34.9544 52.681 34.72 52.0353 34.2561C51.3896 33.7922 50.9257 33.1561 50.6435 32.3383C50.3614 31.5252 50.2227 30.6069 50.2227 29.5787L44.2013 30.3726C44.0052 31.7978 44.077 33.1035 44.4261 34.28C44.7752 35.4566 45.3778 36.4705 46.2435 37.317C47.1044 38.1635 48.2187 38.8188 49.577 39.2827C50.9353 39.7466 52.5279 39.981 54.3549 39.981C56.6458 39.981 58.5349 39.6509 60.0271 38.9862C61.5193 38.3214 62.6385 37.4127 63.3846 36.2505C64.1306 35.0883 64.5037 33.7635 64.5037 32.2713C64.5037 30.8796 64.2454 29.7174 63.7337 28.7895C63.2172 27.8617 62.5285 27.0821 61.6676 26.4508" fill="#FE7B5E"/>
<path d="M120.614 26.202C119.739 25.5564 118.768 25.0111 117.711 24.5664C116.654 24.1216 115.592 23.715 114.535 23.3516C113.507 23.0216 112.641 22.7155 111.929 22.4333C111.216 22.1511 110.68 21.8211 110.317 21.4433C109.953 21.0607 109.772 20.6063 109.772 20.0802C109.772 19.4824 110.001 18.9993 110.465 18.6167C110.929 18.2389 111.589 18.0476 112.45 18.0476C113.311 18.0476 113.961 18.2389 114.506 18.6167C115.052 18.9993 115.458 19.5111 115.721 20.1567C115.984 20.8024 116.104 21.5533 116.07 22.4142L122.67 21.4242C122.8 19.3724 122.441 17.6841 121.58 16.3641C120.719 15.0393 119.509 14.0636 117.955 13.4371C116.4 12.8106 114.612 12.4949 112.593 12.4949C110.441 12.4949 108.605 12.8106 107.084 13.4371C105.563 14.0684 104.401 14.9676 103.612 16.1441C102.818 17.3158 102.421 18.7172 102.421 20.3385C102.421 21.5963 102.65 22.6629 103.114 23.5381C103.578 24.4133 104.224 25.1594 105.051 25.7716C105.878 26.3838 106.811 26.8955 107.854 27.3116C108.896 27.7277 109.977 28.1151 111.106 28.4786C112.196 28.8421 113.105 29.1912 113.837 29.5212C114.564 29.8512 115.109 30.2434 115.473 30.6882C115.836 31.1329 116.018 31.6877 116.018 32.3525C116.018 33.113 115.759 33.6678 115.248 34.0169C114.736 34.366 114.047 34.5382 113.186 34.5382C112.259 34.5382 111.498 34.3134 110.905 33.8686C110.312 33.4238 109.882 32.8212 109.614 32.056C109.351 31.2956 109.217 30.4682 109.217 29.5738L102.516 30.4682C102.32 31.8934 102.401 33.1895 102.765 34.366C103.128 35.5378 103.76 36.5469 104.649 37.3934C105.544 38.2352 106.692 38.8809 108.098 39.3304C109.504 39.7752 111.149 40 113.038 40C115.42 40 117.381 39.6604 118.921 38.9813C120.461 38.3022 121.609 37.3695 122.369 36.1787C123.13 34.9878 123.512 33.6295 123.512 32.1086C123.512 30.7216 123.249 29.5547 122.718 28.6077C122.187 27.6655 121.484 26.8716 120.609 26.2259" fill="#FE7B5E"/>
<path d="M146.22 29.5978C145.804 28.6412 145.235 27.8617 144.508 27.2638C143.781 26.6708 142.853 26.2547 141.729 26.0251C140.605 25.7956 139.199 25.7764 137.511 25.9773V25.4321C139.032 24.9347 140.39 24.2412 141.581 23.3468C142.772 22.4525 143.795 21.4338 144.656 20.2955C145.517 19.1525 146.22 17.9616 146.765 16.7229C147.311 15.4842 147.717 14.2837 147.98 13.1263H139.147C139.013 14.0207 138.817 14.9294 138.554 15.8572C138.291 16.785 137.941 17.6937 137.511 18.5881C137.081 19.4825 136.55 20.3481 135.923 21.1946C135.297 22.0364 134.565 22.8255 133.737 23.5525V4.78535H125.994V39.3257H133.737V28.8039H135.077C136.201 28.8039 137.037 29.043 137.583 29.5213C138.128 29.9995 138.525 30.6978 138.774 31.6065C139.022 32.5152 139.214 33.6152 139.343 34.9065L139.84 39.3209H148.128L147.134 32.9169C146.933 31.6591 146.627 30.5543 146.215 29.593" fill="#FE7B5E"/>
<path d="M158.406 13.1215H150.563V39.3257H158.406V13.1215Z" fill="#FE7B5E"/>
<path d="M181.731 15.1829C180.507 13.3798 178.637 12.4807 176.121 12.4807C174.634 12.4807 173.367 12.8203 172.324 13.4994C171.281 14.1785 170.463 15.2451 169.866 16.699C169.273 18.1529 168.89 20.0564 168.723 22.4047H168.125L168.077 13.1263H161.577V39.3305H169.421V28.1152C169.421 26.2595 169.55 24.6908 169.818 23.3995C170.081 22.1082 170.478 21.1277 171.009 20.4486C171.535 19.7695 172.214 19.4299 173.041 19.4299C173.998 19.4299 174.687 19.8842 175.098 20.7929C175.514 21.7016 175.72 23.1173 175.72 25.0352V39.3305H183.563V23.543C183.563 19.7695 182.951 16.9859 181.727 15.1781" fill="#FE7B5E"/>
<path d="M82.0608 12.4759C80.6021 12.4759 79.3634 12.825 78.3399 13.5185C77.3117 14.212 76.4938 15.3024 75.8816 16.7946C75.2695 18.282 74.8295 20.2333 74.5664 22.6486H73.8729C74.0021 21.8881 74.1455 20.9699 74.2938 19.8938C74.4421 18.8177 74.576 17.7129 74.6908 16.5698C74.8055 15.4268 74.906 14.3363 74.9873 13.2937C75.0686 12.2511 75.1116 11.3663 75.1116 10.6393V4.78535H67.3207V39.3257H75.1642V28.1582C75.1642 26.3073 75.2934 24.729 75.5612 23.4186C75.8243 22.1129 76.2212 21.1181 76.7521 20.4438C77.283 19.7646 77.9764 19.4251 78.8373 19.4251C79.7652 19.4251 80.4347 19.8699 80.846 20.7642C81.2621 21.6586 81.4678 23.0981 81.4678 25.083V39.3257H89.3113V24.0882C89.3113 20.152 88.7231 17.2346 87.5513 15.3311C86.3748 13.4276 84.5478 12.4759 82.0656 12.4759" fill="#FE7B5E"/>
<path d="M67.9233 2.81964C66.0006 4.79966 64.078 6.77012 62.1506 8.75014C53.7953 1.40876 44.4787 -1.53258 43.5365 9.5345C43.4791 10.1419 43.46 10.7971 43.46 11.4906C43.46 12.031 43.4026 12.5763 43.3739 13.1071C43.2113 15.7472 42.8095 18.2485 42.3743 20.6064L40.8104 27.4456L38.1369 39.34H32.2112L34.459 29.9325H33.909C33.1199 32.3908 32.2494 34.3469 31.2977 35.8104C30.3507 37.2691 29.2985 38.3261 28.1315 38.9957C26.9694 39.6557 25.6685 39.9905 24.2432 39.9905C21.7897 39.9905 20.1828 39.0626 19.4319 37.2261C18.6714 35.3848 18.748 32.5343 19.628 28.646L23.1767 13.1119H30.2455L26.9024 27.699C26.4194 29.8178 26.2902 31.353 26.5246 32.2999C26.7541 33.2421 27.395 33.7108 28.4233 33.7108C29.0498 33.7108 29.6572 33.5147 30.2455 33.1226C30.8385 32.7256 31.3885 32.1326 31.9003 31.3482C32.412 30.5686 32.8664 29.6025 33.3016 28.4643C33.732 27.3116 34.1194 25.9868 34.4638 24.4564L36.3864 16.0676C36.9556 13.5902 37.8977 11.2084 39.1364 8.99406C39.1412 8.97971 39.1556 8.97014 39.1604 8.95579C46.8557 -4.92348 63.5997 0.99745 67.9137 2.82443" fill="#FE7B5E"/>
</svg>
