<svg width="49" height="33" viewBox="0 0 49 33" fill="none" xmlns="http://www.w3.org/2000/svg">
<rect y="0.782715" width="49" height="32" rx="8" fill="#F2F2F2"/>
<path fill-rule="evenodd" clip-rule="evenodd" d="M37.7603 25.51H11.2397C10.2101 25.51 9.36765 24.6893 9.36765 23.6863V9.87914C9.36765 8.8761 10.2101 8.05542 11.2397 8.05542H37.7603C38.7899 8.05542 39.6324 8.8761 39.6324 9.87914V23.6863C39.6324 24.6893 38.7899 25.51 37.7603 25.51Z" fill="#005E7B"/>
<path d="M20.5811 19.8477H19.2695L18.8545 18.5732H16.4912L16.0918 19.8477H14.7725L16.9404 13.6494H18.3877L20.5811 19.8477ZM34.3887 19.8477H33.0713L32.6562 18.5732H30.2939L29.8945 19.8477H28.5742L30.7402 13.6494H32.1895L34.3887 19.8477ZM25.2109 13.6494C26.4738 13.6495 27.125 14.2094 27.125 15.2178C27.125 15.838 26.8882 16.2599 26.3955 16.4922C27.0308 16.7508 27.3368 17.2342 27.3369 17.96C27.3369 19.14 26.5566 19.8447 25.1172 19.8447H22.3398V13.6494H25.2109ZM23.543 18.7285H25.0244C25.7114 18.7284 26.0352 18.4932 26.0352 17.9258C26.0351 17.3216 25.7113 17.1055 25.0166 17.1055H23.543V18.7285ZM16.8184 17.5303H18.5117L17.666 14.8926L16.8184 17.5303ZM30.626 17.5303H32.3193L31.4736 14.8926L30.626 17.5303ZM23.543 16.0469H24.9746C25.5737 16.0469 25.8643 15.8482 25.8643 15.373C25.8641 14.8982 25.5687 14.7296 24.9648 14.7295H23.543V16.0469Z" fill="white"/>
<path d="M36.311 12.4192H35.1236V14.8822H36.311V12.4192Z" fill="#EB2427"/>
</svg>
