<svg width="22" height="22" viewBox="0 0 22 22" fill="none" xmlns="http://www.w3.org/2000/svg">
<path d="M10.75 0C16.6871 0 21.5 4.81294 21.5 10.75C21.5 16.6871 16.6871 21.5 10.75 21.5C4.81294 21.5 0 16.6871 0 10.75C0 4.81294 4.81294 0 10.75 0ZM15.791 15.2305C13.1236 12.3505 8.32478 12.4987 5.71387 15.2256L5.52637 15.4131C5.38119 15.5583 5.30159 15.7567 5.30664 15.9619C5.3118 16.1673 5.40133 16.3622 5.55371 16.5C6.92775 17.7425 8.75132 18.5 10.75 18.5C12.7487 18.5 14.5722 17.7424 15.9463 16.5C16.0987 16.3622 16.1882 16.1673 16.1934 15.9619C16.1984 15.7567 16.1188 15.5583 15.9736 15.4131L15.791 15.2305ZM10.7412 5C8.94552 5.00023 7.48828 6.45421 7.48828 8.25C7.48828 10.0458 8.94552 11.4998 10.7412 11.5C12.5371 11.5 13.9951 10.0459 13.9951 8.25C13.9951 6.45407 12.5371 5 10.7412 5Z" fill="#6F7C8E"/>
</svg>
