<svg width="18" height="22" viewBox="0 0 18 22" fill="none" xmlns="http://www.w3.org/2000/svg">
<path fill-rule="evenodd" clip-rule="evenodd" d="M8.75 0C3.91043 0 0 3.96073 0 8.83066C0 11.6254 1.11442 13.8056 3.25258 15.7003C4.64367 16.933 7.14254 19.554 8.10962 21.1403C8.24359 21.36 8.4809 21.4957 8.73825 21.4998C8.99559 21.5038 9.23703 21.3756 9.37783 21.1601C10.4074 19.5846 12.8698 16.9211 14.2474 15.7003C16.3856 13.8056 17.5 11.6254 17.5 8.83066C17.5 3.96073 13.5896 0 8.75 0ZM8.78516 12.25C10.7182 12.25 12.2852 10.683 12.2852 8.75C12.2852 6.817 10.7182 5.25 8.78516 5.25C6.85216 5.25 5.28516 6.817 5.28516 8.75C5.28516 10.683 6.85216 12.25 8.78516 12.25Z" fill="#6F7C8E"/>
</svg>
