<svg width="49" height="33" viewBox="0 0 49 33" fill="none" xmlns="http://www.w3.org/2000/svg">
<rect y="0.782715" width="49" height="32" rx="8" fill="#F2F2F2"/>
<path fill-rule="evenodd" clip-rule="evenodd" d="M37.7603 25.51H11.2397C10.2101 25.51 9.36765 24.6893 9.36765 23.6863V9.87914C9.36765 8.8761 10.2101 8.05542 11.2397 8.05542H37.7603C38.7899 8.05542 39.6324 8.8761 39.6324 9.87914V23.6863C39.6324 24.6893 38.7899 25.51 37.7603 25.51Z" fill="#00A0E9"/>
<mask id="mask0_16570_15587" style="mask-type:luminance" maskUnits="userSpaceOnUse" x="15" y="10" width="19" height="14">
<path fill-rule="evenodd" clip-rule="evenodd" d="M15.8244 10.2373H33.147V23.3094H15.8244V10.2373Z" fill="white"/>
</mask>
<g mask="url(#mask0_16570_15587)">
<path fill-rule="evenodd" clip-rule="evenodd" d="M20.0937 22.0063C18.5491 22.0063 16.9285 21.2907 16.9285 19.9107C16.9285 18.5306 18.4732 17.7639 20.1444 17.7639C21.8156 17.7639 24.4744 19.2207 24.4744 19.2207C23.8414 20.3452 21.6384 22.0063 20.0937 22.0063ZM27.0774 18.2626C28.1234 16.5764 28.542 14.5093 28.542 14.5093H24.8161V13.1508H29.3389V12.4134H24.8161V10.2373H22.9044C22.8484 10.2373 22.8031 10.2831 22.8031 10.3395V12.448H20.7773V11.7579H20.2962V12.4224H18.2958V13.2146H22.879V14.4669H19.1567V15.2592H26.2721C26.1202 16.4092 25.234 17.7382 25.234 17.7382C25.234 17.7382 21.7649 16.5115 19.6885 16.5115C17.6121 16.5115 15.9011 17.9953 15.8269 19.7188C15.7636 21.1883 16.8905 23.5012 20.2582 23.2967C23.626 23.0923 25.905 20.0255 25.905 20.0255L33.147 23.3075V20.3099C27.2217 18.6263 27.0774 18.2626 27.0774 18.2626Z" fill="white"/>
</g>
</svg>
