<svg width="22" height="22" viewBox="0 0 22 22" fill="none" xmlns="http://www.w3.org/2000/svg">
<path opacity="0.4" d="M13.5839 5.375C14.7682 5.37498 15.7296 5.37496 16.4988 5.47498C17.3026 5.57949 17.9857 5.80239 18.5654 6.31093C19.1415 6.8162 19.4645 7.47121 19.6999 8.26802C19.9273 9.03777 20.0954 10.024 20.3044 11.2502L20.3044 11.2503L20.6874 13.4975L20.6874 13.4975C20.9779 15.2013 21.2089 16.5567 21.245 17.6276C21.2821 18.7278 21.1212 19.6658 20.5006 20.4424C19.8744 21.2259 19.0045 21.5651 17.9463 21.7229C16.9265 21.875 15.6064 21.875 13.9607 21.875H13.9607H8.03931H8.03928C6.39361 21.875 5.07347 21.875 4.05369 21.7229C2.99552 21.5651 2.12563 21.2259 1.49943 20.4424C0.878812 19.6658 0.717937 18.7278 0.75501 17.6276C0.791101 16.5567 1.02213 15.2013 1.31255 13.4975L1.69558 11.2503C1.90457 10.024 2.07266 9.03779 2.30009 8.26802C2.53552 7.47121 2.85853 6.8162 3.43457 6.31093C4.01432 5.80239 4.69744 5.57949 5.50119 5.47498C6.27039 5.37496 7.23183 5.37498 8.4161 5.375H8.41612H13.5839H13.5839Z" fill="#FE7B5E"/>
<path fill-rule="evenodd" clip-rule="evenodd" d="M11 2.125C9.27088 2.125 7.83571 3.46132 7.71251 5.18608L7.4975 8.19625C7.45815 8.74713 6.97968 9.16181 6.4288 9.12246C5.87791 9.08311 5.46324 8.60463 5.50258 8.05375L5.7176 5.04359C5.91555 2.27221 8.22161 0.125 11 0.125C13.7785 0.125 16.0845 2.27221 16.2825 5.04359L16.4975 8.05375C16.5368 8.60463 16.1222 9.08311 15.5713 9.12246C15.0204 9.16181 14.5419 8.74713 14.5026 8.19625L14.2876 5.18608C14.1644 3.46132 12.7292 2.125 11 2.125Z" fill="#FE7B5E"/>
</svg>
