<svg width="19" height="20" viewBox="0 0 19 20" fill="none" xmlns="http://www.w3.org/2000/svg">
<path d="M16.5436 9.58333L16.7755 8.19985C16.9272 7.29524 17.003 6.84293 16.7602 6.54647C16.5174 6.25 16.0711 6.25 15.1786 6.25L2.82134 6.25C1.92882 6.25 1.48256 6.25 1.23976 6.54647C0.996952 6.84293 1.07277 7.29524 1.22442 8.19985L2.22739 14.1829C2.55982 16.1659 2.72604 17.1574 3.40469 17.7454C4.08333 18.3333 5.06161 18.3333 7.01816 18.3333H8.99998" stroke="#FE7B5E" stroke-width="1.5" stroke-linecap="round"/>
<path d="M10.6667 15.0003L17.3334 15.0003M14 18.3337L14 11.667" stroke="#FE7B5E" stroke-width="1.5" stroke-linecap="round"/>
<path d="M13.5834 6.25033C13.5834 3.71902 11.5313 1.66699 9.00002 1.66699C6.46871 1.66699 4.41669 3.71902 4.41669 6.25033" stroke="#FE7B5E" stroke-width="1.5"/>
</svg>
