<svg width="22" height="19" viewBox="0 0 22 19" fill="none" xmlns="http://www.w3.org/2000/svg">
<path fill-rule="evenodd" clip-rule="evenodd" d="M10.4326 1.07046C11.8798 0.394541 13.7415 0 15.75 0C16.8698 0 17.9405 0.122567 18.9174 0.346328C19.8345 0.556374 20.5325 0.962169 20.9718 1.63745C21.3928 2.28453 21.5 3.06712 21.5 3.86397V14.636C21.5 16.2032 19.909 17.1123 18.5826 16.8085C17.7201 16.6109 16.762 16.5 15.75 16.5C13.9244 16.5 12.2852 16.8607 11.0674 17.4295C9.62017 18.1055 7.75849 18.5 5.75 18.5C4.63016 18.5 3.55949 18.3774 2.58255 18.1537C1.70689 17.9531 1.01524 17.5611 0.566439 16.8988C0.132421 16.2582 0 15.4716 0 14.636V3.86397C0 2.29678 1.591 1.38772 2.91745 1.69153C3.77989 1.88907 4.738 2 5.75 2C7.57565 2 9.21476 1.63927 10.4326 1.07046ZM13.75 9.25C13.75 10.9069 12.4069 12.25 10.75 12.25C9.09315 12.25 7.75 10.9069 7.75 9.25C7.75 7.59315 9.09315 6.25 10.75 6.25C12.4069 6.25 13.75 7.59315 13.75 9.25ZM4.80242 9.46713C5.21563 9.49603 5.52717 9.85442 5.49827 10.2676C5.46937 10.6808 5.11098 10.9924 4.69777 10.9635C4.33853 10.9383 3.98627 10.9005 3.64261 10.8507C3.23267 10.7914 2.94848 10.4109 3.00784 10.001C3.0672 9.59107 3.44765 9.30687 3.85758 9.36623C4.16415 9.41063 4.4796 9.44455 4.80242 9.46713ZM17.8576 7.64924C18.2675 7.7086 18.5517 8.08905 18.4924 8.49898C18.433 8.90892 18.0525 9.19312 17.6426 9.13376C17.336 9.08936 17.0206 9.05544 16.6978 9.03286C16.2846 9.00396 15.973 8.64557 16.0019 8.23236C16.0308 7.81916 16.3892 7.50762 16.8024 7.53651C17.1617 7.56164 17.5139 7.59947 17.8576 7.64924Z" fill="#D6F782"/>
</svg>
