<svg width="33" height="32" viewBox="0 0 33 32" fill="none" xmlns="http://www.w3.org/2000/svg">
<path opacity="0.4" d="M4.50025 13.666C4.22577 13.666 3.96337 13.7788 3.77453 13.978C3.5857 14.1772 3.48703 14.4453 3.50167 14.7193L3.70529 18.5331L3.70844 18.6023C3.8151 20.9494 3.89968 22.8105 4.1593 24.2647C4.42669 25.7625 4.90113 26.9687 5.88784 27.9116C6.87455 28.8545 8.10107 29.2736 9.60942 29.4727C11.0739 29.6661 12.937 29.666 15.2865 29.666H17.714C20.0635 29.666 21.9266 29.6661 23.3911 29.4727C24.8994 29.2736 26.1259 28.8545 27.1127 27.9116C28.0994 26.9687 28.5738 25.7625 28.8412 24.2647C29.1008 22.8105 29.1854 20.9493 29.2921 18.6023L29.295 18.537L29.2954 18.5291L29.4988 14.7193C29.5135 14.4453 29.4148 14.1772 29.226 13.978C29.0371 13.7788 28.7747 13.666 28.5002 13.666H4.50025Z" fill="#FE7B5E"/>
<path d="M3.14243 9.87839C3.61856 8.43057 4.76536 7 6.69739 7H26.3027C28.2347 7 29.3815 8.43057 29.8577 9.87839C30.33 11.3147 30.2762 13.0825 29.5889 14.3895C27.4522 18.4526 23.108 20.3826 18.7853 20.8718C18.5567 20.8977 18.355 21.035 18.2521 21.2408L17.7627 22.2195C17.5236 22.6978 17.0346 23 16.4998 23C15.965 23 15.476 22.6978 15.2368 22.2195L14.7475 21.2407C14.6446 21.035 14.4429 20.8976 14.2143 20.8717C9.89171 20.3824 5.54781 18.4525 3.41122 14.3895C2.72388 13.0825 2.67009 11.3147 3.14243 9.87839Z" fill="#FE7B5E"/>
<path fill-rule="evenodd" clip-rule="evenodd" d="M16.2666 2C16.4229 2.00002 16.5798 2.00002 16.7351 2C17.5955 1.99993 18.3674 1.99986 19.0073 2.08509C19.715 2.17935 20.3908 2.39103 20.9962 2.9001C21.5841 3.39442 21.935 4.02677 22.2076 4.7106C22.4668 5.36061 22.7025 6.18552 22.9802 7.15771L23.1162 7.63371L20.5522 8.3663L20.4344 7.95422C20.1335 6.90082 19.9337 6.2076 19.7306 5.6983C19.5354 5.20863 19.3904 5.034 19.2799 4.94108C19.187 4.8629 19.0498 4.78096 18.6552 4.72841C18.2122 4.6694 17.6201 4.66668 16.6568 4.66668H16.3449C15.3816 4.66668 14.7895 4.6694 14.3465 4.72841C13.9519 4.78096 13.8148 4.8629 13.7218 4.94108C13.6113 5.034 13.4663 5.20863 13.2711 5.6983C13.068 6.2076 12.8683 6.90082 12.5673 7.95422L12.4496 8.3663L9.8855 7.63371C9.93083 7.47505 9.97617 7.31639 10.0215 7.15773C10.2992 6.18553 10.5349 5.36062 10.7941 4.7106C11.0668 4.02677 11.4177 3.39442 12.0055 2.90009C12.6109 2.39103 13.2867 2.17935 13.9944 2.08509C14.6343 1.99986 15.4062 1.99993 16.2666 2Z" fill="#FE7B5E"/>
</svg>
