<svg width="32" height="32" viewBox="0 0 32 32" fill="none" xmlns="http://www.w3.org/2000/svg">
<path opacity="0.4" d="M4.00025 13.666C3.72577 13.666 3.46337 13.7788 3.27453 13.978C3.0857 14.1772 2.98703 14.4453 3.00167 14.7193L3.20529 18.5331L3.20844 18.6023C3.3151 20.9494 3.39968 22.8105 3.6593 24.2647C3.92669 25.7625 4.40113 26.9687 5.38784 27.9116C6.37455 28.8545 7.60107 29.2736 9.10942 29.4727C10.5739 29.6661 12.437 29.666 14.7865 29.666H17.214C19.5635 29.666 21.4266 29.6661 22.8911 29.4727C24.3994 29.2736 25.6259 28.8545 26.6127 27.9116C27.5994 26.9687 28.0738 25.7625 28.3412 24.2647C28.6008 22.8105 28.6854 20.9493 28.7921 18.6023L28.795 18.537L28.7954 18.5291L28.9988 14.7193C29.0135 14.4453 28.9148 14.1772 28.726 13.978C28.5371 13.7788 28.2747 13.666 28.0002 13.666H4.00025Z" fill="#6F7C8E"/>
<path d="M2.64243 9.87839C3.11856 8.43057 4.26536 7 6.19739 7H25.8027C27.7347 7 28.8815 8.43057 29.3577 9.87839C29.83 11.3147 29.7762 13.0825 29.0889 14.3895C26.9522 18.4526 22.608 20.3826 18.2853 20.8718C18.0567 20.8977 17.855 21.035 17.7521 21.2408L17.2627 22.2195C17.0236 22.6978 16.5346 23 15.9998 23C15.465 23 14.976 22.6978 14.7368 22.2195L14.2475 21.2407C14.1446 21.035 13.9429 20.8976 13.7143 20.8717C9.39171 20.3824 5.04781 18.4525 2.91122 14.3895C2.22388 13.0825 2.17009 11.3147 2.64243 9.87839Z" fill="#6F7C8E"/>
<path fill-rule="evenodd" clip-rule="evenodd" d="M15.7666 2C15.9229 2.00002 16.0798 2.00002 16.2351 2C17.0955 1.99993 17.8674 1.99986 18.5073 2.08509C19.215 2.17935 19.8908 2.39103 20.4962 2.9001C21.0841 3.39442 21.435 4.02677 21.7076 4.7106C21.9668 5.36061 22.2025 6.18552 22.4802 7.15771L22.6162 7.63371L20.0522 8.3663L19.9344 7.95422C19.6335 6.90082 19.4337 6.2076 19.2306 5.6983C19.0354 5.20863 18.8904 5.034 18.7799 4.94108C18.687 4.8629 18.5498 4.78096 18.1552 4.72841C17.7122 4.6694 17.1201 4.66668 16.1568 4.66668H15.8449C14.8816 4.66668 14.2895 4.6694 13.8465 4.72841C13.4519 4.78096 13.3148 4.8629 13.2218 4.94108C13.1113 5.034 12.9663 5.20863 12.7711 5.6983C12.568 6.2076 12.3683 6.90082 12.0673 7.95422L11.9496 8.3663L9.3855 7.63371C9.43083 7.47505 9.47617 7.31639 9.52149 7.15773C9.79923 6.18553 10.0349 5.36062 10.2941 4.7106C10.5668 4.02677 10.9177 3.39442 11.5055 2.90009C12.1109 2.39103 12.7867 2.17935 13.4944 2.08509C14.1343 1.99986 14.9062 1.99993 15.7666 2Z" fill="#6F7C8E"/>
</svg>
