<svg width="15" height="15" viewBox="0 0 15 15" fill="none" xmlns="http://www.w3.org/2000/svg">
<path fill-rule="evenodd" clip-rule="evenodd" d="M8.39817 0.35583C8.7749 0.389524 9.12898 0.504489 9.43303 0.731259C9.65789 0.898969 9.81413 1.10427 9.94759 1.3266C10.0713 1.53264 10.1958 1.78952 10.337 2.08092L10.6215 2.66779H13.5C13.8682 2.66779 14.1666 2.96626 14.1666 3.33445C14.1666 3.70264 13.8682 4.00112 13.5 4.00112C9.49981 4.00112 5.50011 4.00112 1.49998 4.00112C1.13179 4.00112 0.833313 3.70264 0.833313 3.33445C0.833313 2.96626 1.13179 2.66779 1.49998 2.66779H4.43982L4.67702 2.14743C4.81472 1.84529 4.936 1.5792 5.05782 1.36568C5.18923 1.13536 5.34479 0.922229 5.57239 0.747622C5.88019 0.511488 6.24141 0.391775 6.62659 0.356709C6.91659 0.330309 7.20894 0.333942 7.49998 0.33441C7.84051 0.334957 8.14662 0.333331 8.39817 0.35583ZM5.90515 2.66779H9.13976C8.98867 2.35619 8.89195 2.1587 8.80437 2.01278C8.67619 1.79923 8.52261 1.70562 8.27939 1.68386C8.10654 1.6684 7.88127 1.66779 7.523 1.66779C7.15579 1.66779 6.92463 1.66842 6.74747 1.68455C6.49808 1.70726 6.34257 1.80444 6.21592 2.02643C6.13292 2.1719 6.04256 2.36663 5.90515 2.66779Z" fill="#FE7B5E"/>
<path d="M12.5547 9.93848C12.5036 10.7739 12.4631 11.4372 12.3799 11.9668C12.2946 12.5098 12.1578 12.9619 11.8848 13.3574C11.6349 13.7193 11.3135 14.0253 10.9404 14.2549C10.5327 14.5057 10.077 14.6155 9.53516 14.668H5.45117C4.90875 14.6154 4.4529 14.5052 4.04492 14.2539C3.67174 14.024 3.35032 13.7178 3.10059 13.3555C2.82755 12.9592 2.6911 12.5058 2.60645 11.9619C2.52393 11.4317 2.48455 10.768 2.43457 9.93164L2 2.66797H13L12.5547 9.93848ZM6.5 9.82422C6.22386 9.82422 6 10.0481 6 10.3242C6.00018 10.6002 6.22397 10.8242 6.5 10.8242H8.5C8.77603 10.8242 8.99982 10.6002 9 10.3242C9 10.0481 8.77614 9.82422 8.5 9.82422H6.5ZM5.5 7.21191C5.22386 7.21191 5 7.43577 5 7.71191C5 7.98806 5.22386 8.21191 5.5 8.21191H9.5C9.77614 8.21191 10 7.98806 10 7.71191C10 7.43577 9.77614 7.21191 9.5 7.21191H5.5Z" fill="#FE7B5E"/>
</svg>
