<svg width="16" height="18" viewBox="0 0 16 18" fill="none" xmlns="http://www.w3.org/2000/svg">
<path d="M8.45801 0.0419922C8.92941 0.0419922 9.16508 0.04203 9.31152 0.188477C9.45797 0.334923 9.45801 0.570588 9.45801 1.04199V2.59961C9.45798 3.1983 9.45877 3.70983 9.51367 4.11816C9.5723 4.55387 9.70364 4.96437 10.0361 5.29688C10.3687 5.62941 10.7791 5.76169 11.2148 5.82031C11.6232 5.87521 12.1347 5.87503 12.7334 5.875H14.292C14.7634 5.875 14.9991 5.87504 15.1455 6.02148C15.292 6.16793 15.292 6.4036 15.292 6.875V12.3789C15.292 13.5186 15.2915 14.4377 15.1943 15.1602C15.0935 15.9101 14.8775 16.5415 14.376 17.043C13.8744 17.5444 13.2432 17.7605 12.4932 17.8613C11.7707 17.9585 10.8516 17.958 9.71191 17.958H6.28809C5.14843 17.958 4.22931 17.9585 3.50684 17.8613C2.75685 17.7605 2.12559 17.5444 1.62402 17.043C1.12252 16.5415 0.906536 15.9101 0.805664 15.1602C0.708531 14.4377 0.707991 13.5186 0.708008 12.3789V5.62109C0.707991 4.48144 0.708531 3.56231 0.805664 2.83984C0.90653 2.0899 1.1225 1.45855 1.62402 0.957031C2.12559 0.455539 2.75683 0.239512 3.50684 0.138672C4.22931 0.041538 5.14843 0.041975 6.28809 0.0419922H8.45801ZM4.66699 13.375C4.32181 13.375 4.04199 13.6548 4.04199 14C4.04216 14.345 4.32192 14.625 4.66699 14.625H10.083C10.4281 14.625 10.7078 14.345 10.708 14C10.708 13.6548 10.4282 13.375 10.083 13.375H4.66699ZM4.66699 10.875C4.32181 10.875 4.04199 11.1548 4.04199 11.5C4.04216 11.845 4.32192 12.125 4.66699 12.125H11.333C11.6781 12.125 11.9578 11.845 11.958 11.5C11.958 11.1548 11.6782 10.875 11.333 10.875H4.66699ZM4.66699 8.375C4.32181 8.375 4.04199 8.65482 4.04199 9C4.04216 9.34504 4.32192 9.625 4.66699 9.625H11.333C11.6781 9.625 11.9578 9.34504 11.958 9C11.958 8.65482 11.6782 8.375 11.333 8.375H4.66699ZM10.7129 0.152344C10.9851 0.265112 11.1915 0.473557 11.3828 0.666016L14.6201 3.90332L14.668 3.9502C14.8603 4.14147 15.0679 4.34802 15.1807 4.62012C15.1816 4.62232 15.18 4.62476 15.1777 4.625H12.7754C12.1233 4.625 11.697 4.62343 11.3818 4.58105C11.0846 4.54109 10.9816 4.47474 10.9199 4.41309C10.8583 4.35143 10.7919 4.24843 10.752 3.95117C10.7096 3.63596 10.708 3.20971 10.708 2.55762V0.155273C10.7082 0.152967 10.7107 0.151432 10.7129 0.152344Z" fill="#B6C1CA"/>
</svg>
