<svg width="20" height="21" viewBox="0 0 20 21" fill="none" xmlns="http://www.w3.org/2000/svg">
<g clip-path="url(#clip0_16570_15681)">
<path d="M20 10.7827C20 5.25988 15.5228 0.782728 9.99999 0.782728C4.47716 0.782728 0 5.25988 0 10.7827C0 15.4725 3.2286 19.4076 7.58423 20.4882V13.8386H5.52216V10.7827H7.58423V9.46596C7.58423 6.06228 9.12455 4.48469 12.4662 4.48469C13.0997 4.48469 14.1928 4.60888 14.64 4.73312V7.50328C14.404 7.47844 13.9941 7.466 13.4848 7.466C11.845 7.466 11.2115 8.08712 11.2115 9.702V10.7827H14.4778L13.9167 13.8386H11.2115V20.7095C16.1629 20.1114 20 15.8954 20 10.7827Z" fill="#0866FF"/>
<path d="M13.9166 13.8386L14.4778 10.7827H11.2115V9.70196C11.2115 8.08708 11.845 7.46601 13.4847 7.46601C13.994 7.46601 14.4039 7.4784 14.64 7.50325V4.73313C14.1928 4.60889 13.0996 4.48465 12.4661 4.48465C9.12453 4.48465 7.58417 6.06229 7.58417 9.46596V10.7827H5.52209V13.8386H7.58417V20.4882C8.35789 20.6802 9.16689 20.7827 9.99993 20.7827C10.4101 20.7827 10.8143 20.7574 11.2115 20.7095V13.8386H13.9166Z" fill="white"/>
</g>
<defs>
<clipPath id="clip0_16570_15681">
<rect width="20" height="20" fill="white" transform="translate(0 0.782715)"/>
</clipPath>
</defs>
</svg>
