<svg width="25" height="24" viewBox="0 0 25 24" fill="none" xmlns="http://www.w3.org/2000/svg">
<path d="M12.4553 3.70846L12.4996 3.74382L12.544 3.70847C12.9134 3.41641 13.4531 3.05091 14.136 2.75876C15.5217 2.16593 17.4799 1.88759 19.7119 3.08157C22.4944 4.57004 23.8601 8.13312 22.9862 11.8026C22.1023 15.5144 18.9614 19.3369 12.7626 21.6518L12.4996 21.75L12.2367 21.6518C6.03787 19.3369 2.897 15.5144 2.01303 11.8026C1.13911 8.13312 2.5047 4.57003 5.28722 3.08156C7.51924 1.88758 9.47745 2.16592 10.8632 2.75876C11.5461 3.0509 12.0858 3.4164 12.4553 3.70846Z" fill="#FE7B5E"/>
</svg>
