<svg width="22" height="22" viewBox="0 0 22 22" fill="none" xmlns="http://www.w3.org/2000/svg">
<path opacity="0.4" d="M0.25 11C0.25 16.9371 5.06294 21.75 11 21.75C16.9371 21.75 21.75 16.9371 21.75 11C21.75 5.06294 16.9371 0.25 11 0.25C5.06294 0.25 0.25 5.06294 0.25 11Z" fill="#FE7B5E"/>
<path d="M11.0664 6.93461C11.9789 6.24932 13.4829 5.85201 15.123 6.85808C16.3044 7.58275 16.9248 9.06375 16.7057 10.6976C16.4846 12.346 15.4262 14.1534 13.276 15.7448C12.5776 16.2628 11.9203 16.7503 10.9996 16.7503C10.0789 16.7503 9.42158 16.2628 8.72318 15.7448C6.57303 14.1534 5.51463 12.346 5.29354 10.6976C5.07441 9.06375 5.69478 7.58275 6.87618 6.85808C8.51633 5.85201 10.0203 6.24932 10.9328 6.9346L10.9996 6.98474L11.0664 6.93461Z" fill="#FE7B5E"/>
</svg>
