<svg width="31" height="28" viewBox="0 0 31 28" fill="none" xmlns="http://www.w3.org/2000/svg">
<path opacity="0.4" d="M15.4999 0.333984C14.1015 0.333984 12.8992 0.886456 11.6431 1.8054C10.4242 2.69716 9.05122 4.01371 7.31879 5.67492L7.27206 5.71972L3.83325 8.89637V16.0759C3.83323 18.5262 3.83322 20.4671 4.03743 21.986C4.2476 23.5492 4.69043 24.8145 5.68824 25.8123C6.68606 26.8101 7.95133 27.253 9.51456 27.4631C11.0335 27.6674 12.9743 27.6673 15.4246 27.6673H15.5751C18.0255 27.6673 19.9663 27.6674 21.4853 27.4631C23.0485 27.253 24.3138 26.8101 25.3116 25.8123C26.3094 24.8145 26.7522 23.5492 26.9624 21.986C27.1666 20.4671 27.1666 18.5262 27.1666 16.0759V8.89637L23.7278 5.71974L23.6811 5.67494C21.9486 4.01372 20.5756 2.69716 19.3567 1.80541C18.1006 0.886456 16.8984 0.333984 15.4999 0.333984Z" fill="#6F7C8E"/>
<path fill-rule="evenodd" clip-rule="evenodd" d="M13.8333 20.6667C13.8333 19.7462 14.5768 19 15.494 19C16.4035 19 17.1666 19.7489 17.1666 20.6667C17.1666 21.5845 16.4035 22.3333 15.494 22.3333C14.5768 22.3333 13.8333 21.5871 13.8333 20.6667Z" fill="#6F7C8E"/>
<path fill-rule="evenodd" clip-rule="evenodd" d="M13.0209 3.68793C11.9444 4.47549 10.6848 5.67935 8.88027 7.4097L3.0894 12.9624C2.55788 13.472 1.71385 13.4543 1.20419 12.9228C0.694541 12.3913 0.712262 11.5473 1.24378 11.0376L7.10393 5.41848C8.82281 3.77024 10.2093 2.4407 11.4463 1.53573C12.7328 0.594574 14.0035 0 15.4999 0C16.9963 0 18.2671 0.594574 19.5535 1.53573C20.7905 2.4407 22.177 3.77025 23.8959 5.41849L29.7561 11.0376C30.2876 11.5473 30.3053 12.3913 29.7956 12.9228C29.286 13.4543 28.442 13.472 27.9104 12.9624L22.1196 7.40971C20.315 5.67935 19.0555 4.47549 17.979 3.68793C16.9354 2.92442 16.2126 2.66667 15.4999 2.66667C14.7872 2.66667 14.0645 2.92442 13.0209 3.68793Z" fill="#6F7C8E"/>
</svg>
