<svg width="30" height="28" viewBox="0 0 30 28" fill="none" xmlns="http://www.w3.org/2000/svg">
<path opacity="0.4" d="M14.9999 0.333984C13.6015 0.333984 12.3992 0.886456 11.1431 1.8054C9.92422 2.69716 8.55122 4.01371 6.81879 5.67492L6.77206 5.71972L3.33325 8.89637V16.0759C3.33323 18.5262 3.33322 20.4671 3.53743 21.986C3.7476 23.5492 4.19043 24.8145 5.18824 25.8123C6.18606 26.8101 7.45133 27.253 9.01456 27.4631C10.5335 27.6674 12.4743 27.6673 14.9246 27.6673H15.0751C17.5255 27.6673 19.4663 27.6674 20.9853 27.4631C22.5485 27.253 23.8138 26.8101 24.8116 25.8123C25.8094 24.8145 26.2522 23.5492 26.4624 21.986C26.6666 20.4671 26.6666 18.5262 26.6666 16.0759V8.89637L23.2278 5.71974L23.1811 5.67494C21.4486 4.01372 20.0756 2.69716 18.8567 1.80541C17.6006 0.886456 16.3984 0.333984 14.9999 0.333984Z" fill="#FE7B5E"/>
<path fill-rule="evenodd" clip-rule="evenodd" d="M13.3333 20.6667C13.3333 19.7462 14.0768 19 14.994 19C15.9035 19 16.6666 19.7489 16.6666 20.6667C16.6666 21.5845 15.9035 22.3333 14.994 22.3333C14.0768 22.3333 13.3333 21.5871 13.3333 20.6667Z" fill="#FE7B5E"/>
<path fill-rule="evenodd" clip-rule="evenodd" d="M12.5209 3.68793C11.4444 4.47549 10.1848 5.67935 8.38027 7.4097L2.5894 12.9624C2.05788 13.472 1.21385 13.4543 0.704195 12.9228C0.194541 12.3913 0.212262 11.5473 0.743777 11.0376L6.60393 5.41848C8.32281 3.77024 9.70934 2.4407 10.9463 1.53573C12.2328 0.594574 13.5035 0 14.9999 0C16.4963 0 17.7671 0.594574 19.0535 1.53573C20.2905 2.4407 21.677 3.77025 23.3959 5.41849L29.2561 11.0376C29.7876 11.5473 29.8053 12.3913 29.2956 12.9228C28.786 13.4543 27.942 13.472 27.4104 12.9624L21.6196 7.40971C19.815 5.67935 18.5555 4.47549 17.479 3.68793C16.4354 2.92442 15.7126 2.66667 14.9999 2.66667C14.2872 2.66667 13.5645 2.92442 12.5209 3.68793Z" fill="#FE7B5E"/>
</svg>
