<svg width="18" height="18" viewBox="0 0 18 18" fill="none" xmlns="http://www.w3.org/2000/svg">
<path d="M9 0.0419922C13.9476 0.0419922 17.958 4.05245 17.958 9C17.958 13.9476 13.9476 17.958 9 17.958C4.05245 17.958 0.0419922 13.9476 0.0419922 9C0.0419922 4.05245 4.05245 0.0419925 9 0.0419922ZM8.16699 8.16699C7.70676 8.16699 7.33302 8.53978 7.33301 9C7.33301 9.46024 7.70675 9.83301 8.16699 9.83301V13.167C8.16715 13.6271 8.53986 14 9 14C9.46014 14 9.83285 13.6271 9.83301 13.167V9.80078C9.83311 9.63422 9.83348 9.43519 9.81055 9.26465C9.78282 9.05882 9.70827 8.77468 9.4668 8.5332C9.22532 8.29173 8.94118 8.21718 8.73535 8.18945C8.5648 8.16652 8.36578 8.16689 8.19922 8.16699C8.18834 8.167 8.17759 8.16699 8.16699 8.16699ZM8.99609 4.83301C8.53796 4.83307 8.16699 5.20679 8.16699 5.66699C8.16717 6.12704 8.53807 6.49994 8.99609 6.5H9.00391C9.46186 6.49986 9.83283 6.127 9.83301 5.66699C9.83301 5.20684 9.46197 4.83314 9.00391 4.83301H8.99609Z" fill="#B6C1CA"/>
</svg>
