<svg width="16" height="18" viewBox="0 0 16 18" fill="none" xmlns="http://www.w3.org/2000/svg">
<path d="M8 0.0419922C8.1997 0.191306 9.16267 0.893865 9.50195 1.16895C10.1793 1.71816 11.0848 2.50217 11.9922 3.43848C12.8977 4.37278 13.8182 5.4724 14.5156 6.6543C15.2106 7.83209 15.708 9.13248 15.708 10.457C15.708 14.1513 12.7854 17.958 8 17.958C3.21455 17.958 0.29201 14.1514 0.291992 10.457C0.291992 9.13248 0.789369 7.83209 1.48438 6.6543C2.18181 5.4724 3.10233 4.37278 4.00781 3.43848C4.91524 2.50217 5.82074 1.71816 6.49805 1.16895C6.83734 0.893864 7.80031 0.191306 8 0.0419922ZM10.5 10.666C10.5 12.0467 9.38071 13.166 8 13.166V14.833C10.3012 14.833 12.167 12.9672 12.167 10.666H10.5Z" fill="#B6C1CA"/>
</svg>
