<svg width="24" height="24" viewBox="0 0 24 24" fill="none" xmlns="http://www.w3.org/2000/svg">
<path d="M2.00001 12C2.00001 13.732 2.44001 15.362 3.21601 16.783L12 17.653L20.784 16.783C21.5844 15.316 22.0026 13.6711 22 12C22 10.268 21.56 8.638 20.784 7.217L12 6.347L3.21601 7.217C2.41565 8.684 1.99746 10.3289 2.00001 12Z" fill="#D80027"/>
<path d="M3.21594 7.217H20.7839C19.9242 5.63794 18.6545 4.31994 17.1086 3.40182C15.5627 2.48369 13.7979 1.99942 11.9999 2C10.202 1.99942 8.43714 2.48369 6.89127 3.40182C5.3454 4.31994 4.07572 5.63794 3.21594 7.217ZM11.9999 22C13.7979 22.0006 15.5627 21.5163 17.1086 20.5982C18.6545 19.6801 19.9242 18.3621 20.7839 16.783H3.21594C4.07572 18.3621 5.3454 19.6801 6.89127 20.5982C8.43714 21.5163 10.202 22.0006 11.9999 22Z" fill="#0052B4"/>
<path d="M15.478 13.957V12.652H14.608V10.913L13.739 10.043L12.869 10.913V9.173L12 8.305L11.13 9.175V10.914L10.26 10.044L9.39098 10.914V12.654H8.52098V13.957H7.65198V15.262H16.348V13.958H15.478V13.957Z" fill="#F0F0F0"/>
</svg>
