<svg width="45" height="44" viewBox="0 0 45 44" fill="none" xmlns="http://www.w3.org/2000/svg">
<rect x="0.5" width="44" height="44" rx="8" fill="#E1232E"/>
<path fill-rule="evenodd" clip-rule="evenodd" d="M41.8659 35H3.13409C1.63035 35 0.400002 33.7775 0.400002 32.2834V11.7166C0.400002 10.2225 1.63035 9 3.13409 9H41.8659C43.3697 9 44.6 10.2225 44.6 11.7166V32.2834C44.6 33.7775 43.3697 35 41.8659 35Z" fill="#E1232E"/>
<path d="M26.7281 20.9938V23.447H24.3046C24.0561 23.447 23.8696 23.2425 23.8696 23.0067V21.0096C23.8696 20.758 24.0716 20.5693 24.3046 20.5693H26.2776C26.5417 20.5535 26.7281 20.7422 26.7281 20.9938Z" fill="white"/>
<path d="M38.0846 21.9837H36.8728C36.8728 20.5213 35.6921 19.3262 34.2473 19.3262C33.0977 19.3262 32.0879 20.081 31.7461 21.1817C31.6685 21.4491 31.6219 21.7164 31.6219 21.9837V25.8835H31.5908C30.9383 25.8835 30.4101 25.3489 30.4101 24.6884V21.9837H30.4256C30.4256 20.9144 30.8606 19.8923 31.6374 19.1532C32.352 18.477 33.2841 18.0996 34.2629 18.0996C36.3757 18.0996 38.0846 19.8451 38.0846 21.9837Z" fill="white"/>
<path d="M38.1 25.8841L36.3911 25.8998L35.9717 25.4752L35.0395 24.5317L33.7501 23.2266H35.459L38.1 25.8841Z" fill="white"/>
<path d="M27.1322 24.657H23.4813C23.0308 24.657 22.6735 24.2953 22.6735 23.8393V20.1439C22.6735 19.6878 23.0308 19.3262 23.4813 19.3262H27.1322C27.5827 19.3262 27.94 19.6878 27.94 20.1439V23.8393L29.1518 25.0658V19.2947C29.1518 18.6343 28.6235 18.0996 27.9711 18.0996H22.6424C21.9899 18.0996 21.4617 18.6343 21.4617 19.2947V24.6884C21.4617 25.3489 21.9899 25.8835 22.6424 25.8835H28.3439L27.1322 24.657Z" fill="white"/>
<path d="M12.2957 25.8993H10.5869L7.01372 22.2668V25.8993H5.6V18.0996H7.01372V21.5749L10.447 18.0996H12.1249L8.39637 21.8422L12.2957 25.8993Z" fill="white"/>
<path d="M18.681 18.0996H20.0636V25.8993H18.681V22.5184H14.735V25.8993H13.3524V18.0996H14.735V21.3547H18.681V18.0996Z" fill="white"/>
</svg>
