<svg width="49" height="33" viewBox="0 0 49 33" fill="none" xmlns="http://www.w3.org/2000/svg">
<rect y="0.782715" width="49" height="32" rx="8" fill="#F2F2F2"/>
<path fill-rule="evenodd" clip-rule="evenodd" d="M37.7603 25.51H11.2397C10.2101 25.51 9.36765 24.6893 9.36765 23.6863V9.87914C9.36765 8.8761 10.2101 8.05542 11.2397 8.05542H37.7603C38.7899 8.05542 39.6324 8.8761 39.6324 9.87914V23.6863C39.6324 24.6893 38.7899 25.51 37.7603 25.51Z" fill="#E1232E"/>
<path d="M27.7446 16.4399V17.9995H26.1325C25.9672 17.9995 25.8432 17.8695 25.8432 17.7195V16.4499C25.8432 16.29 25.9775 16.17 26.1325 16.17H27.4449C27.6206 16.16 27.7446 16.28 27.7446 16.4399Z" fill="white"/>
<path d="M35.2984 17.0701H34.4924C34.4924 16.1404 33.707 15.3806 32.746 15.3806C31.9813 15.3806 31.3096 15.8604 31.0823 16.5602C31.0306 16.7302 30.9996 16.9001 30.9996 17.0701V19.5493H30.979C30.545 19.5493 30.1936 19.2094 30.1936 18.7895V17.0701H30.204C30.204 16.3903 30.4933 15.7405 31.01 15.2706C31.4853 14.8408 32.1053 14.6008 32.7563 14.6008C34.1617 14.6008 35.2984 15.7105 35.2984 17.0701Z" fill="white"/>
<path d="M35.3089 19.5498L34.1722 19.5598L33.8932 19.2899L33.2732 18.6901L32.4156 17.8604H33.5522L35.3089 19.5498Z" fill="white"/>
<path d="M28.0136 18.7695H25.5853C25.2856 18.7695 25.0479 18.5396 25.0479 18.2497V15.9004C25.0479 15.6105 25.2856 15.3806 25.5853 15.3806H28.0136C28.3133 15.3806 28.551 15.6105 28.551 15.9004V18.2497L29.357 19.0295V15.3606C29.357 14.9407 29.0056 14.6008 28.5716 14.6008H25.0273C24.5933 14.6008 24.2419 14.9407 24.2419 15.3606V18.7895C24.2419 19.2094 24.5933 19.5493 25.0273 19.5493H28.8196L28.0136 18.7695Z" fill="white"/>
<path d="M18.1449 19.5593H17.0082L14.6315 17.25V19.5593H13.6912V14.6008H14.6315V16.8102L16.9152 14.6008H18.0312L15.5512 16.9801L18.1449 19.5593Z" fill="white"/>
<path d="M22.3919 14.6008H23.3116V19.5593H22.3919V17.41H19.7672V19.5593H18.8475V14.6008H19.7672V16.6702H22.3919V14.6008Z" fill="white"/>
</svg>
