<svg width="25" height="30" viewBox="0 0 25 30" fill="none" xmlns="http://www.w3.org/2000/svg">
<path opacity="0.4" d="M1.5 11.7819C1.5 5.69078 6.52966 0.666016 12.5 0.666016C18.4703 0.666016 23.5 5.69078 23.5 11.7819C23.5 18.0011 18.369 22.2154 14.0595 24.9052L14.0444 24.9147L14.029 24.9235C13.5638 25.1914 13.0368 25.3327 12.5 25.3327C11.9632 25.3327 11.4362 25.1914 10.971 24.9235L10.9534 24.9134L10.9361 24.9025C6.64337 22.192 1.5 18.0222 1.5 11.7819Z" fill="#6F7C8E"/>
<path d="M7.83325 11.6667C7.83325 9.08934 9.92259 7 12.4999 7C15.0772 7 17.1666 9.08934 17.1666 11.6667C17.1666 14.244 15.0772 16.3333 12.4999 16.3333C9.92259 16.3333 7.83325 14.244 7.83325 11.6667Z" fill="#6F7C8E"/>
<path d="M4.14058 22.656C4.51476 23.2903 4.30394 24.1077 3.66971 24.4819C3.46063 24.6053 3.32572 24.7115 3.2432 24.7908C3.28813 24.8335 3.35271 24.8879 3.44455 24.9533C3.81857 25.2194 4.44619 25.5137 5.34176 25.7832C7.11601 26.3172 9.64717 26.6669 12.5 26.6669C15.3528 26.6669 17.884 26.3172 19.6582 25.7832C20.5538 25.5137 21.1814 25.2194 21.5554 24.9533C21.6473 24.8879 21.7119 24.8335 21.7568 24.7908C21.6743 24.7115 21.5394 24.6053 21.3303 24.4819C20.6961 24.1077 20.4852 23.2903 20.8594 22.656C21.2336 22.0218 22.0511 21.811 22.6853 22.1852C23.5109 22.6723 24.5 23.5126 24.5 24.7902C24.5 25.8779 23.773 26.6482 23.1014 27.1261C22.3959 27.628 21.4614 28.0254 20.4267 28.3368C18.3404 28.9646 15.5382 29.3335 12.5 29.3335C9.4618 29.3335 6.65962 28.9646 4.5733 28.3368C3.53858 28.0254 2.6041 27.628 1.89859 27.1261C1.22702 26.6482 0.5 25.8779 0.5 24.7902C0.5 23.5126 1.48907 22.6723 2.3147 22.1852C2.94893 21.811 3.76641 22.0218 4.14058 22.656Z" fill="#6F7C8E"/>
</svg>
