<svg width="24" height="30" viewBox="0 0 24 30" fill="none" xmlns="http://www.w3.org/2000/svg">
<path opacity="0.4" d="M1 11.7819C1 5.69078 6.02966 0.666016 12 0.666016C17.9703 0.666016 23 5.69078 23 11.7819C23 18.0011 17.869 22.2154 13.5595 24.9052L13.5444 24.9147L13.529 24.9235C13.0638 25.1914 12.5368 25.3327 12 25.3327C11.4632 25.3327 10.9362 25.1914 10.471 24.9235L10.4534 24.9134L10.4361 24.9025C6.14337 22.192 1 18.0222 1 11.7819Z" fill="#FE7B5E"/>
<path d="M7.33325 11.6667C7.33325 9.08934 9.42259 7 11.9999 7C14.5772 7 16.6666 9.08934 16.6666 11.6667C16.6666 14.244 14.5772 16.3333 11.9999 16.3333C9.42259 16.3333 7.33325 14.244 7.33325 11.6667Z" fill="#FE7B5E"/>
<path d="M3.64058 22.656C4.01476 23.2903 3.80394 24.1077 3.16971 24.4819C2.96063 24.6053 2.82572 24.7115 2.7432 24.7908C2.78813 24.8335 2.85271 24.8879 2.94455 24.9533C3.31857 25.2194 3.94619 25.5137 4.84176 25.7832C6.61601 26.3172 9.14717 26.6669 12 26.6669C14.8528 26.6669 17.384 26.3172 19.1582 25.7832C20.0538 25.5137 20.6814 25.2194 21.0554 24.9533C21.1473 24.8879 21.2119 24.8335 21.2568 24.7908C21.1743 24.7115 21.0394 24.6053 20.8303 24.4819C20.1961 24.1077 19.9852 23.2903 20.3594 22.656C20.7336 22.0218 21.5511 21.811 22.1853 22.1852C23.0109 22.6723 24 23.5126 24 24.7902C24 25.8779 23.273 26.6482 22.6014 27.1261C21.8959 27.628 20.9614 28.0254 19.9267 28.3368C17.8404 28.9646 15.0382 29.3335 12 29.3335C8.9618 29.3335 6.15962 28.9646 4.0733 28.3368C3.03858 28.0254 2.1041 27.628 1.39859 27.1261C0.727019 26.6482 0 25.8779 0 24.7902C0 23.5126 0.98907 22.6723 1.8147 22.1852C2.44893 21.811 3.26641 22.0218 3.64058 22.656Z" fill="#FE7B5E"/>
</svg>
