<svg width="20" height="20" viewBox="0 0 20 20" fill="none" xmlns="http://www.w3.org/2000/svg">
<path fill-rule="evenodd" clip-rule="evenodd" d="M11 1C11 0.44772 10.5523 0 10 0C9.4477 0 9 0.44772 9 1V8C9 8.5523 9.4477 9 10 9C10.5523 9 11 8.5523 11 8V1ZM6.32871 2.88832C6.81919 2.63447 7.01103 2.03107 6.75718 1.54058C6.50334 1.05009 5.89993 0.85825 5.40944 1.1121C2.19824 2.77402 0 6.1286 0 9.9983C0 15.5211 4.47715 19.9983 10 19.9983C15.5228 19.9983 20 15.5211 20 9.9983C20 6.1286 17.8018 2.77402 14.5906 1.1121C14.1001 0.85825 13.4967 1.05009 13.2428 1.54058C12.989 2.03107 13.1808 2.63447 13.6713 2.88832C16.2448 4.22018 18 6.90509 18 9.9983C18 14.4166 14.4183 17.9983 10 17.9983C5.58172 17.9983 2 14.4166 2 9.9983C2 6.90509 3.75525 4.22018 6.32871 2.88832Z" fill="#6F7C8E"/>
</svg>
