<svg width="24" height="25" viewBox="0 0 24 25" fill="none" xmlns="http://www.w3.org/2000/svg">
<path d="M13.6177 21.6497C13.1841 22.0557 12.6044 22.2827 12.0011 22.2827C11.3978 22.2827 10.8182 22.0557 10.3845 21.6497C6.41302 17.9087 1.09076 13.7296 3.68627 7.66238C5.08963 4.38187 8.45834 2.28271 12.0011 2.28271C15.5439 2.28271 18.9126 4.38187 20.316 7.66238C22.9082 13.722 17.599 17.9216 13.6177 21.6497Z" stroke="white" stroke-width="1.5"/>
<path d="M15.5 11.2827C15.5 13.2157 13.933 14.7827 12 14.7827C10.067 14.7827 8.5 13.2157 8.5 11.2827C8.5 9.34972 10.067 7.78271 12 7.78271C13.933 7.78271 15.5 9.34972 15.5 11.2827Z" stroke="white" stroke-width="1.5"/>
</svg>
