<svg width="49" height="33" viewBox="0 0 49 33" fill="none" xmlns="http://www.w3.org/2000/svg">
<rect y="0.782715" width="49" height="32" rx="8" fill="#F2F2F2"/>
<path fill-rule="evenodd" clip-rule="evenodd" d="M37.7603 25.51H11.2397C10.2101 25.51 9.36765 24.6893 9.36765 23.6863V9.87914C9.36765 8.8761 10.2101 8.05542 11.2397 8.05542H37.7603C38.7899 8.05542 39.6324 8.8761 39.6324 9.87914V23.6863C39.6324 24.6893 38.7899 25.51 37.7603 25.51Z" fill="black"/>
<path fill-rule="evenodd" clip-rule="evenodd" d="M22.2211 21.2292H27.6139V12.5139H22.2211V21.2292Z" fill="#FF5F00"/>
<path fill-rule="evenodd" clip-rule="evenodd" d="M22.7763 16.8721C22.7749 15.1717 23.5639 13.5652 24.9157 12.5152C22.4834 10.6239 18.962 11.0416 17.0504 13.4482C15.139 15.8549 15.5611 19.3392 17.9935 21.2305C20.0247 22.8101 22.8844 22.8101 24.9157 21.2305C23.5634 20.1804 22.7744 18.573 22.7763 16.8721Z" fill="#EB001B"/>
<path fill-rule="evenodd" clip-rule="evenodd" d="M34.29 22.0282V21.3149H34.1628L34.0309 21.7501L33.8683 21.3149H33.7403V22.0282H33.8366V21.5513L33.9901 21.9239H34.0746L34.1971 21.5513V22.0282H34.29ZM33.3862 22.0282V21.4321H33.5208V21.3149H33.1471V21.4321H33.2774V22.0282H33.3862Z" fill="#F79E1B"/>
<path fill-rule="evenodd" clip-rule="evenodd" d="M33.9792 16.8721C33.979 19.933 31.4712 22.4144 28.3777 22.4144C27.122 22.4142 25.903 21.9969 24.9159 21.2289C27.3481 19.3375 27.7704 15.8533 25.8588 13.4466C25.5831 13.0996 25.2666 12.7863 24.9159 12.5136C27.3478 10.6219 30.8692 11.0389 32.7813 13.4452C33.5572 14.4219 33.979 15.6281 33.9792 16.8705V16.8721Z" fill="#F79E1B"/>
</svg>
