<svg width="43" height="42" viewBox="0 0 43 42" fill="none" xmlns="http://www.w3.org/2000/svg">
<path d="M21.5 40.8125C32.4421 40.8125 41.3125 31.9421 41.3125 21C41.3125 10.0579 32.4421 1.1875 21.5 1.1875C10.5579 1.1875 1.6875 10.0579 1.6875 21C1.6875 31.9421 10.5579 40.8125 21.5 40.8125Z" fill="white" stroke="#00A81C" stroke-width="2"/>
<path d="M30.0357 14.0357C30.4994 14.8836 30.188 15.947 29.34 16.4107C26.9401 17.7232 24.6863 20.4707 22.9655 23.1056C22.1266 24.3902 21.4536 25.5862 20.9907 26.4606C20.7598 26.897 20.5823 27.2511 20.4638 27.4934L20.2919 27.8529C20.0215 28.4439 19.4457 28.8369 18.7967 28.8727C18.1476 28.9085 17.5322 28.5816 17.1985 28.0236C16.6547 27.1146 15.7907 26.2847 14.9899 25.6516C14.6009 25.344 14.2507 25.1015 14.0007 24.9378L13.6327 24.7076C12.7936 24.2287 12.5014 23.1602 12.9802 22.3208C13.459 21.4813 14.5277 21.1889 15.3673 21.6677L15.9186 22.01C16.2374 22.2189 16.6747 22.5219 17.1607 22.9061C17.532 23.1997 17.9472 23.5527 18.3664 23.9595C18.8159 23.152 19.3775 22.1987 20.0351 21.1919C21.8143 18.4675 24.4605 15.09 27.6606 13.3399C28.5086 12.8762 29.572 13.1877 30.0357 14.0357Z" fill="#00A81C"/>
</svg>
