<svg width="40" height="40" viewBox="0 0 40 40" fill="none" xmlns="http://www.w3.org/2000/svg">
<path d="M37.5 20C37.5 10.335 29.665 2.5 20 2.5C10.335 2.5 2.5 10.335 2.5 20C2.5 29.665 10.335 37.5 20 37.5C29.665 37.5 37.5 29.665 37.5 20Z" fill="white"/>
<path d="M25.2489 25.25L14.75 14.75M14.7511 25.25L25.25 14.75" stroke="#DF0C3D" stroke-width="3" stroke-linecap="round" stroke-linejoin="round"/>
<path d="M20 38.5C30.2173 38.5 38.5 30.2173 38.5 20C38.5 9.78273 30.2173 1.5 20 1.5C9.78273 1.5 1.5 9.78273 1.5 20C1.5 30.2173 9.78273 38.5 20 38.5Z" stroke="#DF0C3D" stroke-width="2"/>
</svg>
