<svg width="40" height="40" viewBox="0 0 40 40" fill="none" xmlns="http://www.w3.org/2000/svg">
<path fill-rule="evenodd" clip-rule="evenodd" d="M21.5312 29.5812C21.5312 25.1354 25.1354 21.5312 29.5813 21.5313C34.0271 21.5313 37.6313 25.1354 37.6313 29.5812C37.6313 31.1707 37.1706 32.6526 36.3755 33.9006L38.5187 36.0438C39.2021 36.7272 39.2021 37.8353 38.5187 38.5187C37.8353 39.2021 36.7272 39.2021 36.0438 38.5187L33.9006 36.3755C32.6526 37.1706 31.1707 37.6312 29.5813 37.6312C25.1354 37.6312 21.5312 34.0271 21.5312 29.5812ZM29.5813 25.0312C27.0684 25.0312 25.0312 27.0684 25.0312 29.5812C25.0312 32.0941 27.0684 34.1312 29.5813 34.1312C32.0941 34.1312 34.1313 32.0941 34.1313 29.5812C34.1313 27.0684 32.0941 25.0312 29.5813 25.0312Z" fill="#14181F"/>
<path opacity="0.4" d="M18.0312 38.5957C18.9436 38.5957 19.8276 38.4011 20.834 38.0586C21.5077 37.8293 21.8444 37.7141 21.9209 37.4521C21.9972 37.1899 21.7481 36.8796 21.25 36.2588C19.7833 34.4307 18.9063 32.1091 18.9063 29.583C18.9063 23.6874 23.6855 18.9083 29.5811 18.9082C30.936 18.9082 32.2322 19.1607 33.4248 19.6211C34.233 19.9331 34.6371 20.0887 34.8652 19.9326C35.0933 19.7762 35.0938 19.3767 35.0938 18.5781V10.1563C35.0938 8.7636 34.1041 7.90862 33.3164 7.3877C32.5297 6.86751 31.4116 6.33789 30.1436 5.7373L25.043 3.32129C24.9262 3.26596 24.811 3.21118 24.6973 3.15723C21.9592 1.85844 20.0831 0.96875 18.0313 0.96875C15.9794 0.96875 14.1033 1.85844 11.3652 3.15723C11.2515 3.21118 11.1363 3.26596 11.0195 3.32129L6.03516 5.68262C5.99645 5.70095 5.95739 5.7191 5.91895 5.7373C4.65089 6.33789 3.53283 6.86751 2.74609 7.3877C1.95835 7.90862 0.96875 8.7636 0.96875 10.1562L0.96875 28.8154C0.968784 30.776 2.39881 32.0803 4.15918 33.1367C5.94136 34.2061 8.93317 35.4697 12.2461 36.8691C14.7293 37.919 16.3302 38.5957 18.0312 38.5957ZM7.52148 11.6221C6.10277 10.95 5.21336 10.5245 4.65625 10.1562C5.21336 9.78799 6.10277 9.36155 7.52148 8.68945L12.5059 6.3291C15.7297 4.80184 16.8593 4.30957 18.0313 4.30957C19.1041 4.30957 20.1416 4.7217 22.7822 5.96289L9.40137 12.5127L7.52148 11.6221ZM18.0313 16.0029C16.9585 16.0029 15.9209 15.5908 13.2803 14.3496L26.6611 7.79883L28.541 8.68945C29.9597 9.36155 30.8491 9.788 31.4063 10.1563C30.8491 10.5245 29.9597 10.95 28.541 11.6221L23.5566 13.9834C20.3329 15.5106 19.2032 16.0029 18.0313 16.0029Z" fill="#14181F"/>
<path fill-rule="evenodd" clip-rule="evenodd" d="M6.3576 19.1946C6.68178 18.5462 7.47016 18.2834 8.11851 18.6076L11.6185 20.3576C12.2669 20.6818 12.5296 21.4702 12.2055 22.1185C11.8813 22.7669 11.0929 23.0296 10.4446 22.7055L6.94457 20.9555C6.29622 20.6313 6.03343 19.8429 6.3576 19.1946Z" fill="#14181F"/>
<path d="M9.40088 12.5149L22.7817 5.96484L26.6607 7.80127L13.2799 14.3513L9.40088 12.5149Z" fill="#14181F"/>
</svg>
