<svg width="15" height="15" viewBox="0 0 15 15" fill="none" xmlns="http://www.w3.org/2000/svg">
<path d="M12.2018 0.658384C11.3986 0.212466 10.4246 0.227184 9.63489 0.69686C9.38416 0.845975 9.15268 1.06815 8.86124 1.37736C8.73729 1.50886 8.67532 1.57461 8.67652 1.65572C8.67772 1.73682 8.74228 1.80138 8.87139 1.93049L13.1322 6.19134C13.2641 6.32318 13.33 6.3891 13.4126 6.38928C13.4952 6.38946 13.5605 6.32466 13.6913 6.19506C13.9718 5.91694 14.1751 5.69146 14.3135 5.44869C14.7692 4.64902 14.7833 3.66583 14.3509 2.85309C14.1707 2.51432 13.8671 2.20444 13.4136 1.74142L13.2909 1.61603C12.8389 1.15402 12.535 0.843357 12.2018 0.658384Z" fill="#FE7B5E"/>
<path d="M12.1558 7.6768C12.2939 7.54373 12.363 7.47719 12.3638 7.39325C12.3646 7.30931 12.2968 7.24149 12.1611 7.10585L7.98908 2.9338C7.85078 2.7955 7.78164 2.72636 7.69645 2.72806C7.61127 2.72977 7.54495 2.80163 7.4123 2.94535L2.26168 8.5258C1.51497 9.33457 1.05731 9.83028 0.789409 10.4469C0.522022 11.0623 0.469369 11.7395 0.383273 12.8467L0.383124 12.8486C0.382969 12.8505 0.326131 13.5777 0.334905 13.7351C0.344841 13.9134 0.387303 14.1301 0.552775 14.3179C0.71974 14.5074 0.930786 14.5755 1.10847 14.6052C1.26303 14.631 1.95915 14.6491 1.96056 14.6491C3.22532 14.6824 4.00716 14.703 4.72614 14.4222C5.4441 14.1418 6.01148 13.5951 6.93205 12.7081L12.1558 7.6768Z" fill="#FE7B5E"/>
</svg>
