<svg width="24" height="25" viewBox="0 0 24 25" fill="none" xmlns="http://www.w3.org/2000/svg">
<path d="M3.77762 12.2251C2.8296 10.572 2.37185 9.22219 2.09584 7.85393C1.68762 5.83029 2.62181 3.85352 4.16938 2.59219C4.82345 2.0591 5.57323 2.24123 5.96 2.93511L6.83318 4.50162C7.52529 5.74328 7.87134 6.36411 7.8027 7.02231C7.73407 7.6805 7.26737 8.21658 6.33397 9.28872L3.77762 12.2251ZM3.77762 12.2251C5.69651 15.571 8.70784 18.584 12.0576 20.5051M12.0576 20.5051C13.7107 21.4531 15.0605 21.9109 16.4288 22.1869C18.4524 22.5951 20.4292 21.6609 21.6905 20.1133C22.2236 19.4593 22.0415 18.7095 21.3476 18.3227L19.7811 17.4495C18.5394 16.7574 17.9186 16.4114 17.2604 16.48C16.6022 16.5487 16.0661 17.0153 14.994 17.9487L12.0576 20.5051Z" stroke="white" stroke-width="1.5" stroke-linejoin="round"/>
</svg>
