<svg width="20" height="22" viewBox="0 0 20 22" fill="none" xmlns="http://www.w3.org/2000/svg">
<path d="M11.3681 20.117C10.9344 20.523 10.3548 20.75 9.75148 20.75C9.14821 20.75 8.56855 20.523 8.13485 20.117C4.16339 16.376 -1.15887 12.1969 1.43663 6.12966C2.84 2.84916 6.20871 0.75 9.75148 0.75C13.2943 0.75 16.663 2.84916 18.0663 6.12966C20.6586 12.1893 15.3494 16.3889 11.3681 20.117Z" stroke="#14181F" stroke-width="1.5"/>
<path d="M13.2504 9.75C13.2504 11.683 11.6834 13.25 9.75037 13.25C7.81737 13.25 6.25037 11.683 6.25037 9.75C6.25037 7.817 7.81737 6.25 9.75037 6.25C11.6834 6.25 13.2504 7.817 13.2504 9.75Z" stroke="#14181F" stroke-width="1.5"/>
</svg>
