<svg width="32" height="33" viewBox="0 0 32 33" fill="none" xmlns="http://www.w3.org/2000/svg">
<g clip-path="url(#clip0_16896_1207)">
<path d="M15.5 32.5C18.2614 32.5 20.5 31.6046 20.5 30.5C20.5 29.3954 18.2614 28.5 15.5 28.5C12.7386 28.5 10.5 29.3954 10.5 30.5C10.5 31.6046 12.7386 32.5 15.5 32.5Z" fill="#FE7B5E" fill-opacity="0.1"/>
<path fill-rule="evenodd" clip-rule="evenodd" d="M15.5 0.5C20.7467 0.5 25 4.74151 25 9.97368C25 14.6904 21.5435 18.602 17.0187 19.327C16.9237 19.3422 16.7992 19.3588 16.6455 19.3766C16.4438 19.4001 16.2917 19.5709 16.2917 19.774V29.7083C16.2917 30.1456 15.9372 30.5 15.5 30.5C15.0628 30.5 14.7083 30.1456 14.7083 29.7083V19.774C14.7083 19.571 14.5561 19.4002 14.3544 19.3767C14.2045 19.3593 14.0829 19.3432 13.9898 19.3283C9.46085 18.6069 6 14.6933 6 9.97368C6 4.74151 10.2533 0.5 15.5 0.5Z" fill="#FE7B5E"/>
</g>
<defs>
<clipPath id="clip0_16896_1207">
<rect width="32" height="32" fill="white" transform="translate(0 0.5)"/>
</clipPath>
</defs>
</svg>
