<svg width="20" height="22" viewBox="0 0 20 22" fill="none" xmlns="http://www.w3.org/2000/svg">
<path d="M15.8062 13.8372C15.9225 13.9064 16.0662 13.9875 16.2288 14.0793C16.9417 14.4814 18.0192 15.0893 18.7573 15.8118C19.219 16.2637 19.6577 16.8592 19.7374 17.5888C19.8222 18.3646 19.4837 19.0927 18.8047 19.7396C17.6333 20.8556 16.2275 21.75 14.4092 21.75H5.59092C3.77261 21.75 2.36683 20.8556 1.19538 19.7396C0.516363 19.0927 0.1779 18.3646 0.262706 17.5888C0.342452 16.8592 0.781106 16.2637 1.24277 15.8118C1.98094 15.0893 3.05845 14.4814 3.77126 14.0793L3.77129 14.0792C3.93395 13.9875 4.07761 13.9064 4.19392 13.8372C7.74797 11.7209 12.2521 11.7209 15.8062 13.8372Z" fill="#FE7B5E"/>
<path opacity="0.4" d="M4.75 5.5C4.75 2.6005 7.1005 0.25 10 0.25C12.8995 0.25 15.25 2.6005 15.25 5.5C15.25 8.39949 12.8995 10.75 10 10.75C7.1005 10.75 4.75 8.39949 4.75 5.5Z" fill="#FE7B5E"/>
</svg>
