<svg width="22" height="22" viewBox="0 0 22 22" fill="none" xmlns="http://www.w3.org/2000/svg">
<path d="M1.96582 0C3.34887 0 4.58437 0.91634 4.93164 2.26562L5.37793 4H21C21.5521 4.00019 22 4.44783 22 5C22 5.55217 21.5521 5.99981 21 6H20.8945L20.3574 10.8389C20.2074 12.1893 19.9623 13.3615 19.1484 14.1533C18.3346 14.9449 17.1566 15.1567 15.8027 15.2695L7.65234 15.9492C7.57401 16.0965 7.48354 16.2388 7.37988 16.373L7.04297 16.8076C7.39244 17.1334 7.66349 17.5403 7.82617 18H13.1738C13.5859 16.8353 14.6941 16 16 16C17.6569 16 19 17.3431 19 19C19 20.6569 17.6569 22 16 22C14.6941 22 13.5859 21.1647 13.1738 20H7.82617C7.41406 21.1647 6.30585 22 5 22C3.34315 22 2 20.6569 2 19C2 17.3431 3.34315 16 5 16C5.04615 16 5.09206 16.0009 5.1377 16.0029L5.79688 15.1504C5.95756 14.9422 6.02358 14.6875 5.99121 14.4395C5.9853 14.3992 5.97875 14.3613 5.96973 14.3262L3.3125 4H3.31348L2.99512 2.76367C2.88398 2.33252 2.47196 2 1.96582 2H1C0.447715 2 0 1.55228 0 1C0 0.447715 0.447715 0 1 0H1.96582ZM5 18C4.44772 18 4 18.4477 4 19C4 19.5523 4.44772 20 5 20C5.55228 20 6 19.5523 6 19C6 18.4477 5.55228 18 5 18ZM16 18C15.4477 18 15 18.4477 15 19C15 19.5523 15.4477 20 16 20C16.5523 20 17 19.5523 17 19C17 18.4477 16.5523 18 16 18Z" fill="#FE7B5E"/>
</svg>
