<svg width="45" height="44" viewBox="0 0 45 44" fill="none" xmlns="http://www.w3.org/2000/svg">
<rect x="0.5" width="44" height="44" rx="8" fill="#EDF0F2"/>
<path d="M18.5972 24.0577V21.8377H20.7167V18.9906C20.7167 17.9399 19.5889 17.262 17.3333 16.9569C17.5537 15.9514 18.15 14.7934 19.1222 13.4828C20.0945 12.1609 20.8852 11.5 21.4945 11.5C22 11.5 22.6481 11.709 23.4389 12.127L24.625 12.771C24.962 12.9518 25.3769 13.0422 25.8695 13.0422C26.1417 13.0422 26.4074 13.0196 26.6667 12.9744C26.55 13.641 26.2843 14.2454 25.8695 14.7877C25.4287 15.33 24.9361 15.6238 24.3917 15.669C24.3528 15.6803 24.2815 15.6859 24.1778 15.6859C23.6333 15.6859 22.9204 15.4825 22.0389 15.0758C21.5981 14.8612 21.2222 14.7538 20.9111 14.7538C20.5222 14.7538 20.25 14.912 20.0945 15.2283L19.6472 16.1096C22.6287 16.6745 24.1195 17.3524 24.1195 18.1432V21.8377H26.2389V24.0577H24.1195V32.1922C24.1195 33.1752 23.2704 33.6667 21.5722 33.6667C20.6389 33.6667 19.8806 33.4351 19.2972 32.9718C18.7269 32.5086 18.312 31.9324 18.0528 31.2432C17.7935 30.5541 17.6639 29.8818 17.6639 29.2265C17.6639 27.2607 18.6815 26.2778 20.7167 26.2778V24.0577H18.5972ZM20.7167 31.4466V27.7522C19.8222 27.7522 19.375 28.2437 19.375 29.2265C19.375 30.7066 19.8222 31.4466 20.7167 31.4466Z" fill="#72777A"/>
</svg>
