<svg width="29" height="26" viewBox="0 0 29 26" fill="none" xmlns="http://www.w3.org/2000/svg">
<path opacity="0.4" d="M25.8332 8.66602C26.3855 8.66602 26.8332 9.11373 26.8332 9.66602V18.8079C26.9453 19.0605 27.0915 19.3341 27.2696 19.6674L27.2696 19.6674C27.3876 19.8882 27.5196 20.1353 27.665 20.4197C28.049 21.1711 28.4636 22.0787 28.7109 23.1195C28.8754 23.8119 28.9741 24.7279 28.3219 25.3821C28.0164 25.6885 27.6397 25.8323 27.308 25.9059C26.9774 25.9792 26.6145 25.9993 26.2538 25.9993H25.4126C25.0519 25.9993 24.689 25.9792 24.3584 25.9059C24.0267 25.8323 23.65 25.6885 23.3445 25.3821C22.6922 24.7279 22.791 23.8119 22.9555 23.1195C23.2028 22.0787 23.6174 21.1711 24.0014 20.4197C24.1467 20.1353 24.2787 19.8882 24.3967 19.6674L24.3967 19.6674L24.3967 19.6674C24.5749 19.3341 24.7211 19.0605 24.8332 18.8079V9.66602C24.8332 9.11373 25.2809 8.66602 25.8332 8.66602Z" fill="#FE7B5E"/>
<path opacity="0.4" d="M18.6511 16.3713C17.9118 16.6335 17.1911 16.8617 16.5384 17.028C15.938 17.1809 15.1995 17.3339 14.4998 17.3339C13.8001 17.3339 13.0617 17.1809 12.4613 17.028C11.8086 16.8617 11.0879 16.6335 10.3486 16.3713C9.18494 15.9587 7.89499 15.4333 6.62414 14.8581C6.16586 14.6507 5.64404 14.9966 5.66595 15.4991L5.82806 19.2173C5.83623 19.4048 5.8581 19.6497 5.93648 19.9084C6.11951 20.5127 6.47589 21.1244 7.07344 21.5526C7.9665 22.1926 9.15171 22.6303 10.411 22.9114C11.6834 23.1953 13.0977 23.3339 14.4998 23.3339C15.902 23.3339 17.3163 23.1953 18.5886 22.9114C19.848 22.6303 21.0332 22.1926 21.9262 21.5526C22.5238 21.1244 22.8802 20.5127 23.0632 19.9084C23.1416 19.6497 23.1635 19.4048 23.1716 19.2173L23.3337 15.4991C23.3556 14.9966 22.8338 14.6507 22.3755 14.8581C21.1047 15.4332 19.8147 15.9587 18.6511 16.3713Z" fill="#FE7B5E"/>
<path d="M12.955 0.244037C13.513 0.101883 14.056 0 14.4998 0C14.9437 0 15.4867 0.101883 16.0446 0.244037C16.6203 0.39071 17.2801 0.59846 17.9827 0.847586C19.3885 1.34611 21.0088 2.02579 22.5448 2.76029C24.0764 3.49265 25.5544 4.29396 26.6635 5.04077C27.2143 5.4117 27.7082 5.79169 28.0757 6.16428C28.2596 6.35071 28.4355 6.55877 28.5704 6.78541C28.7015 7.00558 28.8332 7.30891 28.8332 7.66667C28.8332 8.02442 28.7015 8.32776 28.5704 8.54792C28.4355 8.77456 28.2596 8.98263 28.0757 9.16905C27.7082 9.54164 27.2143 9.92164 26.6635 10.2926C25.5544 11.0394 24.0764 11.8407 22.5448 12.5731C21.0088 13.3075 19.3885 13.9872 17.9827 14.4857C17.2801 14.7349 16.6203 14.9426 16.0446 15.0893C15.4867 15.2315 14.9437 15.3333 14.4998 15.3333C14.056 15.3333 13.513 15.2315 12.955 15.0893C12.3794 14.9426 11.7195 14.7349 11.017 14.4857C9.61115 13.9872 7.99084 13.3075 6.45485 12.573C4.92331 11.8407 3.44529 11.0394 2.33621 10.2926C1.78534 9.92164 1.29149 9.54164 0.923946 9.16905C0.740045 8.98263 0.564189 8.77456 0.429255 8.54792C0.298178 8.32776 0.166504 8.02442 0.166504 7.66667C0.166504 7.30891 0.298178 7.00558 0.429255 6.78541C0.564189 6.55877 0.740046 6.35071 0.923946 6.16428C1.29149 5.79169 1.78534 5.4117 2.33621 5.04077C3.44529 4.29396 4.92331 3.49265 6.45485 2.76029C7.99084 2.02579 9.61115 1.34611 11.017 0.847586C11.7195 0.59846 12.3794 0.39071 12.955 0.244037Z" fill="#FE7B5E"/>
</svg>
