<svg width="30" height="26" viewBox="0 0 30 26" fill="none" xmlns="http://www.w3.org/2000/svg">
<path opacity="0.4" d="M26.3332 8.66602C26.8855 8.66602 27.3332 9.11373 27.3332 9.66602V18.8079C27.4453 19.0605 27.5915 19.3341 27.7696 19.6674L27.7696 19.6674C27.8876 19.8882 28.0196 20.1353 28.165 20.4197C28.549 21.1711 28.9636 22.0787 29.2109 23.1195C29.3754 23.8119 29.4741 24.7279 28.8219 25.3821C28.5164 25.6885 28.1397 25.8323 27.808 25.9059C27.4774 25.9792 27.1145 25.9993 26.7538 25.9993H25.9126C25.5519 25.9993 25.189 25.9792 24.8584 25.9059C24.5267 25.8323 24.15 25.6885 23.8445 25.3821C23.1922 24.7279 23.291 23.8119 23.4555 23.1195C23.7028 22.0787 24.1174 21.1711 24.5014 20.4197C24.6467 20.1353 24.7787 19.8882 24.8967 19.6674L24.8967 19.6674L24.8967 19.6674C25.0749 19.3341 25.2211 19.0605 25.3332 18.8079V9.66602C25.3332 9.11373 25.7809 8.66602 26.3332 8.66602Z" fill="#6F7C8E"/>
<path opacity="0.4" d="M19.1511 16.3713C18.4118 16.6335 17.6911 16.8617 17.0384 17.028C16.438 17.1809 15.6995 17.3339 14.9998 17.3339C14.3001 17.3339 13.5617 17.1809 12.9613 17.028C12.3086 16.8617 11.5879 16.6335 10.8486 16.3713C9.68494 15.9587 8.39499 15.4333 7.12414 14.8581C6.66586 14.6507 6.14404 14.9966 6.16595 15.4991L6.32806 19.2173C6.33623 19.4048 6.3581 19.6497 6.43648 19.9084C6.61951 20.5127 6.97589 21.1244 7.57344 21.5526C8.4665 22.1926 9.65171 22.6303 10.911 22.9114C12.1834 23.1953 13.5977 23.3339 14.9998 23.3339C16.402 23.3339 17.8163 23.1953 19.0886 22.9114C20.348 22.6303 21.5332 22.1926 22.4262 21.5526C23.0238 21.1244 23.3802 20.5127 23.5632 19.9084C23.6416 19.6497 23.6635 19.4048 23.6716 19.2173L23.8337 15.4991C23.8556 14.9966 23.3338 14.6507 22.8755 14.8581C21.6047 15.4332 20.3147 15.9587 19.1511 16.3713Z" fill="#6F7C8E"/>
<path d="M13.455 0.244037C14.013 0.101883 14.556 0 14.9998 0C15.4437 0 15.9867 0.101883 16.5446 0.244037C17.1203 0.39071 17.7801 0.59846 18.4827 0.847586C19.8885 1.34611 21.5088 2.02579 23.0448 2.76029C24.5764 3.49265 26.0544 4.29396 27.1635 5.04077C27.7143 5.4117 28.2082 5.79169 28.5757 6.16428C28.7596 6.35071 28.9355 6.55877 29.0704 6.78541C29.2015 7.00558 29.3332 7.30891 29.3332 7.66667C29.3332 8.02442 29.2015 8.32776 29.0704 8.54792C28.9355 8.77456 28.7596 8.98263 28.5757 9.16905C28.2082 9.54164 27.7143 9.92164 27.1635 10.2926C26.0544 11.0394 24.5764 11.8407 23.0448 12.5731C21.5088 13.3075 19.8885 13.9872 18.4827 14.4857C17.7801 14.7349 17.1203 14.9426 16.5446 15.0893C15.9867 15.2315 15.4437 15.3333 14.9998 15.3333C14.556 15.3333 14.013 15.2315 13.455 15.0893C12.8794 14.9426 12.2195 14.7349 11.517 14.4857C10.1111 13.9872 8.49084 13.3075 6.95485 12.573C5.42331 11.8407 3.94529 11.0394 2.83621 10.2926C2.28534 9.92164 1.79149 9.54164 1.42395 9.16905C1.24005 8.98263 1.06419 8.77456 0.929255 8.54792C0.798178 8.32776 0.666504 8.02442 0.666504 7.66667C0.666504 7.30891 0.798178 7.00558 0.929255 6.78541C1.06419 6.55877 1.24005 6.35071 1.42395 6.16428C1.79149 5.79169 2.28534 5.4117 2.83621 5.04077C3.94529 4.29396 5.42331 3.49265 6.95485 2.76029C8.49084 2.02579 10.1111 1.34611 11.517 0.847586C12.2195 0.59846 12.8794 0.39071 13.455 0.244037Z" fill="#6F7C8E"/>
</svg>
