<svg width="20" height="21" viewBox="0 0 20 21" fill="none" xmlns="http://www.w3.org/2000/svg">
<g clip-path="url(#clip0_16570_15687)">
<path d="M10 20.7827C15.5228 20.7827 20 16.3056 20 10.7827C20 5.25987 15.5228 0.782715 10 0.782715C4.47715 0.782715 0 5.25987 0 10.7827C0 16.3056 4.47715 20.7827 10 20.7827Z" fill="url(#paint0_linear_16570_15687)"/>
<path fill-rule="evenodd" clip-rule="evenodd" d="M4.5266 10.6772C7.4418 9.40707 9.38573 8.56974 10.3584 8.16518C13.1355 7.01008 13.7125 6.80943 14.0887 6.80281C14.1714 6.80135 14.3563 6.82185 14.4762 6.91907C14.5773 7.00116 14.6052 7.11205 14.6185 7.18988C14.6318 7.26771 14.6484 7.44501 14.6352 7.58355C14.4847 9.16478 13.8335 13.002 13.5022 14.773C13.3621 15.5224 13.0861 15.7737 12.8188 15.7983C12.2381 15.8517 11.7972 15.4145 11.2347 15.0458C10.3546 14.4689 9.85735 14.1097 9.00303 13.5467C8.01572 12.8961 8.65575 12.5385 9.21842 11.9541C9.36567 11.8012 11.9243 9.47386 11.9739 9.26274C11.98 9.23634 11.9858 9.13791 11.9273 9.08594C11.8689 9.03397 11.7826 9.05174 11.7203 9.06588C11.632 9.08591 10.226 10.0152 7.50222 11.8539C7.10313 12.1279 6.74164 12.2614 6.41776 12.2544C6.06071 12.2467 5.37388 12.0526 4.8633 11.8866C4.23705 11.683 3.73932 11.5754 3.78266 11.2297C3.80524 11.0496 4.05321 10.8654 4.5266 10.6772Z" fill="white"/>
</g>
<defs>
<linearGradient id="paint0_linear_16570_15687" x1="1000" y1="0.782715" x2="1000" y2="1985.95" gradientUnits="userSpaceOnUse">
<stop stop-color="#2AABEE"/>
<stop offset="1" stop-color="#229ED9"/>
</linearGradient>
<clipPath id="clip0_16570_15687">
<rect width="20" height="20" fill="white" transform="translate(0 0.782715)"/>
</clipPath>
</defs>
</svg>
