<svg width="24" height="24" viewBox="0 0 24 24" fill="none" xmlns="http://www.w3.org/2000/svg">
<g clip-path="url(#clip0_17285_2448)">
<path d="M12 24C18.6274 24 24 18.6274 24 12C24 5.37258 18.6274 0 12 0C5.37258 0 0 5.37258 0 12C0 18.6274 5.37258 24 12 24Z" fill="white"/>
<path fill-rule="evenodd" clip-rule="evenodd" d="M5.43189 11.872C8.93014 10.3479 11.2628 9.34306 12.43 8.85759C15.7626 7.47147 16.455 7.23069 16.9064 7.22274C17.0056 7.22099 17.2276 7.24559 17.3714 7.36226C17.4928 7.46077 17.5262 7.59384 17.5422 7.68723C17.5581 7.78063 17.578 7.99339 17.5622 8.15963C17.3816 10.0571 16.6002 14.6618 16.2027 16.787C16.0345 17.6863 15.7032 17.9878 15.3826 18.0173C14.6857 18.0814 14.1566 17.5568 13.4816 17.1143C12.4255 16.422 11.8288 15.991 10.8036 15.3155C9.61884 14.5347 10.3869 14.1056 11.0621 13.4043C11.2388 13.2208 14.3092 10.428 14.3686 10.1747C14.376 10.143 14.3829 10.0249 14.3128 9.96251C14.2426 9.90014 14.139 9.92147 14.0643 9.93843C13.9584 9.96247 12.2712 11.0777 9.00264 13.284C8.52373 13.6129 8.08994 13.7731 7.70129 13.7647C7.27283 13.7554 6.44864 13.5224 5.83594 13.3233C5.08444 13.079 4.48716 12.9498 4.53917 12.535C4.56626 12.3189 4.86383 12.0979 5.43189 11.872Z" fill="#FE7B5E"/>
</g>
<defs>
<clipPath id="clip0_17285_2448">
<rect width="24" height="24" fill="white"/>
</clipPath>
</defs>
</svg>
