<svg width="20" height="21" viewBox="0 0 20 21" fill="none" xmlns="http://www.w3.org/2000/svg">
<path d="M20 3.95678C19.2641 4.28313 18.4733 4.50369 17.6433 4.60289C18.4905 4.09504 19.1411 3.29092 19.4475 2.3328C18.6547 2.80297 17.7765 3.14446 16.8419 3.32852C16.0933 2.53105 15.027 2.03271 13.8468 2.03271C11.5807 2.03271 9.74344 3.86987 9.74344 6.13586C9.74344 6.45746 9.7798 6.77063 9.84974 7.07094C6.43952 6.89983 3.41607 5.26626 1.3923 2.7838C1.0391 3.38982 0.836753 4.09468 0.836753 4.84664C0.836753 6.27018 1.56121 7.52611 2.6622 8.26191C1.98954 8.24062 1.35689 8.05605 0.803614 7.74872C0.803321 7.76584 0.803321 7.78303 0.803321 7.8003C0.803321 9.78837 2.21771 11.4468 4.09481 11.8237C3.75047 11.9175 3.38798 11.9676 3.01372 11.9676C2.74933 11.9676 2.49226 11.9419 2.24178 11.894C2.76389 13.5242 4.27923 14.7105 6.07476 14.7436C4.67047 15.8441 2.9012 16.5001 0.978821 16.5001C0.647646 16.5001 0.321007 16.4807 0 16.4428C1.81587 17.607 3.97271 18.2863 6.28992 18.2863C13.8372 18.2863 17.9644 12.0339 17.9644 6.61167C17.9644 6.43375 17.9604 6.25679 17.9525 6.08085C18.7542 5.50234 19.4499 4.77963 20 3.95678Z" fill="#55ACEE"/>
</svg>
