<svg width="14" height="14" viewBox="0 0 14 14" fill="none" xmlns="http://www.w3.org/2000/svg">
<path fill-rule="evenodd" clip-rule="evenodd" d="M2.5 3.83333C2.5 3.09695 3.09695 2.5 3.83333 2.5C4.56971 2.5 5.16667 3.09695 5.16667 3.83333C5.16667 4.56971 4.56971 5.16667 3.83333 5.16667C3.09695 5.16667 2.5 4.56971 2.5 3.83333Z" fill="#FE7B5E"/>
<path fill-rule="evenodd" clip-rule="evenodd" d="M6.95037 3.56307e-07H7.04964C8.50029 -1.53793e-05 9.65677 -2.79347e-05 10.5635 0.121882C11.4998 0.247758 12.269 0.514498 12.8772 1.12276C13.4855 1.73102 13.7522 2.50022 13.8781 3.43647C14 4.34324 14 5.49972 14 6.95039V7.04962C14 8.50028 14 9.65677 13.8781 10.5635C13.7522 11.4998 13.4855 12.269 12.8772 12.8772C12.269 13.4855 11.4998 13.7522 10.5635 13.8781C9.65676 14 8.50028 14 7.04962 14H6.95039C5.49972 14 4.34324 14 3.43647 13.8781C2.50022 13.7522 1.73102 13.4855 1.12276 12.8772C0.514498 12.269 0.247758 11.4998 0.121882 10.5635C-2.79347e-05 9.65677 -1.53793e-05 8.50029 3.56307e-07 7.04964V6.95037C-1.53793e-05 5.49971 -2.79347e-05 4.34323 0.121882 3.43647C0.247758 2.50022 0.514498 1.73102 1.12276 1.12276C1.73102 0.514498 2.50022 0.247758 3.43647 0.121882C4.34323 -2.79347e-05 5.49971 -1.53793e-05 6.95037 3.56307e-07ZM3.61414 1.44333C2.82574 1.54932 2.3848 1.74633 2.06557 2.06557C1.74633 2.3848 1.54932 2.82574 1.44333 3.61414C1.33475 4.42172 1.33333 5.48837 1.33333 7C1.33333 8.51163 1.33475 9.57828 1.44333 10.3859C1.54932 11.1743 1.74633 11.6152 2.06557 11.9344C2.3848 12.2537 2.82574 12.4507 3.61414 12.5567C4.42172 12.6653 5.48837 12.6667 7 12.6667C8.51163 12.6667 9.57828 12.6653 10.3859 12.5567C11.1743 12.4507 11.6152 12.2537 11.9344 11.9344C12.2537 11.6152 12.4507 11.1743 12.5567 10.3859C12.6653 9.57828 12.6667 8.51163 12.6667 7C12.6667 5.48837 12.6653 4.42172 12.5567 3.61414C12.4507 2.82574 12.2537 2.3848 11.9344 2.06557C11.6152 1.74633 11.1743 1.54932 10.3859 1.44333C9.57828 1.33475 8.51163 1.33333 7 1.33333C5.48837 1.33333 4.42172 1.33475 3.61414 1.44333Z" fill="#FE7B5E"/>
<path d="M13.6934 7.4692C12.3953 6.63208 11.1586 6.2813 9.97503 6.33073C8.79692 6.37993 7.73757 6.82285 6.78466 7.45995C5.17234 8.53792 3.75426 10.258 2.48457 11.7981C2.28358 12.0418 2.08627 12.2812 1.89253 12.5127L1.33331 13.0013L2.14863 13.5564C2.72477 13.7951 3.3986 13.8996 4.17297 13.9505C4.94433 14.0012 5.87347 14.0012 6.97832 14.0012H7.05005C8.5007 14.0012 9.65718 14.0012 10.5639 13.8793C11.5002 13.7534 12.2694 13.4867 12.8777 12.8784C13.4106 12.3454 13.6831 11.6915 13.8268 10.9035C13.9667 10.1358 13.9929 9.18907 13.9987 8.03283L14.0006 7.66731L13.6934 7.4692Z" fill="#FE7B5E"/>
</svg>
