<svg width="24" height="24" viewBox="0 0 24 24" fill="none" xmlns="http://www.w3.org/2000/svg">
<path d="M12 5.5C8.41015 5.5 5.5 8.50233 5.5 12.2059C5.5 13.8177 6.5 16 8 18.0441H16C17.5 16 18.5 13.8523 18.5 12.2059C18.5 8.50233 15.5899 5.5 12 5.5Z" fill="#D6F782"/>
<path d="M14.4617 19.8949L14.5725 19.3164H9.42969L9.54053 19.8949L9.54054 19.895C9.66174 20.5276 9.72235 20.8439 9.85815 21.0939C10.0681 21.4804 10.4083 21.7715 10.8126 21.9106C11.074 22.0006 11.3831 22.0006 12.0011 22.0006H12.0011H12.0011C12.6192 22.0006 12.9282 22.0006 13.1896 21.9106C13.5939 21.7715 13.9341 21.4804 14.1441 21.0939C14.2799 20.8439 14.3405 20.5276 14.4617 19.895L14.4617 19.8949Z" fill="#D6F782"/>
<path d="M12 2V3" stroke="#D6F782" stroke-width="1.5" stroke-linecap="round" stroke-linejoin="round"/>
<path d="M22 12L21 12" stroke="#D6F782" stroke-width="1.5" stroke-linecap="round" stroke-linejoin="round"/>
<path d="M3 12L2 12" stroke="#D6F782" stroke-width="1.5" stroke-linecap="round" stroke-linejoin="round"/>
<path d="M19.0703 4.92969L18.3632 5.63679" stroke="#D6F782" stroke-width="1.5" stroke-linecap="round" stroke-linejoin="round"/>
<path d="M5.63672 5.63672L4.92961 4.92961" stroke="#D6F782" stroke-width="1.5" stroke-linecap="round" stroke-linejoin="round"/>
</svg>
