<svg width="18" height="22" viewBox="0 0 18 22" fill="none" xmlns="http://www.w3.org/2000/svg">
<path d="M2.70526 12C2.27244 12 1.87561 11.9999 1.5528 12.0433C1.19732 12.0911 0.821594 12.2035 0.51257 12.5126C0.203547 12.8216 0.0910996 13.1973 0.0433066 13.5528C-9.43281e-05 13.8756 -4.75394e-05 14.2724 3.48215e-06 14.7053L4.0186e-06 17.3135C-3.63337e-05 17.6417 -7.4124e-05 17.9492 0.0298754 18.2061C0.0632053 18.4921 0.140384 18.7927 0.347563 19.0703C0.554742 19.3479 0.821025 19.5074 1.08569 19.6207C1.32351 19.7225 1.6183 19.81 1.93291 19.9033L6.93181 21.3866C7.65626 21.6016 8.43272 21.5081 9.08771 21.1302L16.6033 16.7938C17.5365 16.2554 17.7766 15.0138 17.1551 14.1532C16.4623 13.1937 15.2517 12.7709 14.1212 13.1224L14.1197 13.1229L11.9942 13.7759C11.7456 13.8523 11.6212 13.8905 11.5822 13.9622C11.5433 14.0339 11.5898 14.1974 11.6828 14.5243C11.7537 14.7736 11.7621 15.0127 11.75 15.1473C11.75 16.1286 11.081 16.921 10.2167 17.1599L7.6758 17.8624C6.75412 18.1173 5.76687 18.0296 4.90388 17.6121L3.2836 16.8281C2.97288 16.6778 2.84286 16.304 2.9932 15.9933C3.14354 15.6826 3.5173 15.5526 3.82802 15.7029L5.44831 16.4869C6.03692 16.7717 6.71218 16.832 7.3427 16.6576L9.88361 15.9551C10.2337 15.8583 10.5 15.5384 10.5 15.1473C10.5 13.7342 9.32329 13.3752 7.92409 13.3752L6.8815 13.3751C6.69974 13.3751 6.52138 13.3341 6.36081 13.2564L4.31883 12.2684C3.95322 12.0915 3.55136 12 3.14483 12L2.70526 12Z" fill="#D6F782"/>
<path d="M8.2034 0.236871C8.34518 0.0857379 8.54317 0 8.75039 0C8.95761 0 9.1556 0.085738 9.29738 0.236871C9.42412 0.371976 9.56358 0.545025 9.67043 0.682343C9.88367 0.956381 10.1663 1.35068 10.4491 1.83807C11.0089 2.80288 11.6004 4.18592 11.6004 5.75C11.6004 7.31408 11.0089 8.69712 10.4491 9.66193C10.1663 10.1493 9.88367 10.5436 9.67043 10.8177C9.56778 10.9496 9.3779 11.1698 9.30564 11.2535L9.29738 11.2631C9.1556 11.4143 8.95761 11.5 8.75039 11.5C8.54317 11.5 8.34484 11.4139 8.20307 11.2628L8.19518 11.2536C8.12322 11.1702 7.93318 10.9498 7.83035 10.8177C7.61712 10.5436 7.33448 10.1493 7.05168 9.66193C6.49187 8.69712 5.90039 7.31408 5.90039 5.75C5.90039 4.18592 6.49187 2.80288 7.05168 1.83807C7.33448 1.35068 7.61712 0.956381 7.83035 0.682343C7.9372 0.545025 8.03772 0.41348 8.2034 0.236871Z" fill="#D6F782"/>
<path d="M1.00022 3.8246C0.994566 3.56687 1.09709 3.31807 1.28404 3.13586C1.47099 2.95366 1.72614 2.85386 1.99034 2.85961C2.14733 2.87173 2.63582 2.90854 2.90126 2.94791C3.42935 3.02625 4.15195 3.176 4.92168 3.46436C5.42114 3.65148 5.67054 4.19813 5.47872 4.68534C5.28691 5.17256 4.72652 5.41584 4.22706 5.22873C3.82287 5.07731 3.4302 4.97291 3.08569 4.9012C3.11096 5.02346 3.14045 5.15228 3.17486 5.28596C3.40392 6.17579 3.83012 7.19989 4.59814 7.96437C5.36442 8.72712 6.3881 9.14851 7.2754 9.37481C7.71189 9.48614 8.09643 9.5454 8.36924 9.57658C8.47824 9.59724 8.78315 9.62616 9.13076 9.57658C9.40357 9.5454 9.78811 9.48614 10.2246 9.37481C11.1119 9.14851 12.1356 8.72712 12.9019 7.96437C13.6699 7.19989 14.0961 6.17579 14.3251 5.28596C14.3596 5.15228 14.389 5.02346 14.4143 4.9012C14.0698 4.97291 13.6771 5.07731 13.2729 5.22873C12.7735 5.41584 12.2131 5.17256 12.0213 4.68534C11.8295 4.19813 12.0789 3.65148 12.5783 3.46436C13.3481 3.176 14.0707 3.02625 14.5987 2.94791C14.8642 2.90854 15.1738 2.85961 15.5097 2.85961C15.7739 2.85386 16.029 2.95366 16.216 3.13586C16.4029 3.31807 16.5054 3.56687 16.4998 3.8246C16.4969 3.95636 16.4741 4.23119 16.4545 4.40128C16.4154 4.74048 16.3421 5.21109 16.2043 5.74625C15.9328 6.80115 15.3902 8.18776 14.2856 9.28724C13.1793 10.3885 11.7811 10.9314 10.7147 11.2033C10.1743 11.3412 9.69905 11.4146 9.35624 11.4537C8.75 11.523 8.75 11.523 8.14376 11.4537C7.80095 11.4146 7.32567 11.3412 6.7853 11.2033C5.71887 10.9314 4.32067 10.3885 3.21436 9.28724C2.10979 8.18776 1.56724 6.80115 1.2957 5.74625C1.15794 5.21109 1.08461 4.74048 1.04548 4.40128C1.02586 4.23119 1.00656 3.92316 1.00022 3.8246Z" fill="#D6F782"/>
</svg>
