<svg width="22" height="22" viewBox="0 0 22 22" fill="none" xmlns="http://www.w3.org/2000/svg">
<path d="M16.0955 5.03884L16.4475 5.74858C16.4955 5.84737 16.6235 5.94214 16.7315 5.96029L17.3694 6.06715C17.7773 6.13571 17.8733 6.43412 17.5794 6.7285L17.0834 7.22854C16.9994 7.31323 16.9534 7.47655 16.9794 7.59349L17.1214 8.2125C17.2334 8.70246 16.9754 8.89199 16.5455 8.63592L15.9475 8.27904C15.8396 8.21452 15.6616 8.21452 15.5516 8.27904L14.9537 8.63592C14.5257 8.89199 14.2657 8.70045 14.3777 8.2125L14.5197 7.59349C14.5457 7.47655 14.4997 7.31323 14.4157 7.22854L13.9198 6.7285C13.6278 6.43412 13.7218 6.13571 14.1297 6.06715L14.7677 5.96029C14.8737 5.94214 15.0016 5.84737 15.0496 5.74858L15.4016 5.03884C15.5936 4.65372 15.9055 4.65372 16.0955 5.03884Z" fill="#D6F782"/>
<path d="M6.09553 5.03884L6.44749 5.74858C6.49548 5.84737 6.62347 5.94214 6.73146 5.96029L7.36939 6.06715C7.77734 6.13571 7.87333 6.43412 7.57936 6.7285L7.08342 7.22854C6.99943 7.31323 6.95343 7.47655 6.97943 7.59349L7.12141 8.2125C7.2334 8.70246 6.97543 8.89199 6.54548 8.63592L5.94754 8.27904C5.83956 8.21452 5.66157 8.21452 5.55159 8.27904L4.95365 8.63592C4.5257 8.89199 4.26573 8.70045 4.37772 8.2125L4.5197 7.59349C4.5457 7.47655 4.4997 7.31323 4.41571 7.22854L3.91977 6.7285C3.6278 6.43412 3.72179 6.13571 4.12974 6.06715L4.76767 5.96029C4.87366 5.94214 5.00165 5.84737 5.04964 5.74858L5.4016 5.03884C5.59358 4.65372 5.90555 4.65372 6.09553 5.03884Z" fill="#D6F782"/>
<path d="M10.75 21.5C16.6871 21.5 21.5 16.6871 21.5 10.75C21.5 4.81294 16.6871 0 10.75 0C4.81294 0 0 4.81294 0 10.75C0 16.6871 4.81294 21.5 10.75 21.5ZM8.12402 10.2852C7.57853 10.6861 6.93635 10.4476 6.55859 10.2227L5.74902 9.73926L4.93945 10.2227C4.55951 10.4499 3.91942 10.6845 3.375 10.2842C2.83428 9.88637 2.86104 9.20782 2.95996 8.77637L3.15332 7.93359L2.47168 7.24609C2.15942 6.93125 1.87498 6.42942 2.05273 5.86816C2.2314 5.30407 2.75634 5.06009 3.19531 4.98633L4.06348 4.84082L4.55469 3.84961L4.55566 3.84863C4.7523 3.45418 5.14032 3.00022 5.74805 3C6.35692 3 6.7451 3.45513 6.94043 3.85059V3.85156L7.43066 4.83984L8.30273 4.98633C8.74095 5.05997 9.26567 5.30367 9.44531 5.86719C9.62448 6.42953 9.33954 6.93203 9.02539 7.24707L9.02441 7.24805L8.34473 7.93359L8.53809 8.77637C8.63611 9.20523 8.66617 9.88644 8.12402 10.2852ZM18.124 10.2852C17.5785 10.6861 16.9363 10.4476 16.5586 10.2227L15.749 9.73926L14.9395 10.2227C14.5595 10.4499 13.9194 10.6845 13.375 10.2842C12.8342 9.88634 12.861 9.20782 12.96 8.77637L13.1533 7.93359L12.4717 7.24609C12.1594 6.93125 11.875 6.42942 12.0527 5.86816C12.2314 5.30407 12.7563 5.06009 13.1953 4.98633L14.0635 4.84082L14.5547 3.84961L14.5557 3.84863C14.7523 3.45418 15.1403 3.00022 15.748 3C16.357 3 16.7451 3.45508 16.9404 3.85059L17.4307 4.83984L18.3027 4.98633C18.741 5.05997 19.2657 5.30367 19.4453 5.86719C19.6245 6.4296 19.3396 6.93203 19.0254 7.24707L19.0244 7.24805L18.3447 7.93359L18.5381 8.77637C18.6361 9.20523 18.6662 9.88644 18.124 10.2852ZM10.75 16.5C8.86846 16.5 7.19805 15.5951 6.15039 14.2002C5.90173 13.869 5.96864 13.3991 6.2998 13.1504C6.631 12.9017 7.10087 12.9686 7.34961 13.2998C8.12618 14.3337 9.36027 15 10.75 15C12.1397 15 13.3738 14.3337 14.1504 13.2998C14.3991 12.9686 14.869 12.9017 15.2002 13.1504C15.5314 13.3991 15.5983 13.869 15.3496 14.2002C14.3019 15.5951 12.6316 16.5 10.75 16.5Z" fill="#D6F782"/>
</svg>
