<svg width="22" height="22" viewBox="0 0 22 22" fill="none" xmlns="http://www.w3.org/2000/svg">
<path d="M10.75 1C11.1642 1 11.5 1.33579 11.5 1.75C11.5 3.75608 12.5106 5.82493 14.0928 7.40717C15.6751 8.98941 17.7439 10 19.75 10C20.1642 10 20.5 10.3358 20.5 10.75C20.5 11.1642 20.1642 11.5 19.75 11.5C17.7439 11.5 15.6751 12.5106 14.0928 14.0928C12.5106 15.6751 11.5 17.7439 11.5 19.75C11.5 20.1642 11.1642 20.5 10.75 20.5C10.3358 20.5 10 20.1642 10 19.75C10 17.7439 8.98941 15.6751 7.40717 14.0928C5.82493 12.5106 3.75608 11.5 1.75 11.5C1.33579 11.5 1 11.1642 1 10.75C1 10.3358 1.33579 10 1.75 10C3.75608 10 5.82493 8.98941 7.40717 7.40717C8.98941 5.82493 10 3.75608 10 1.75C10 1.33579 10.3358 1 10.75 1Z" fill="#D6F782"/>
<path d="M18 0C18.2135 0 18.3984 0.147941 18.4454 0.356199L18.6796 1.39601C18.8395 2.10601 19.394 2.66047 20.104 2.82041L21.1438 3.05464C21.3521 3.10155 21.5 3.28652 21.5 3.5C21.5 3.71348 21.3521 3.89845 21.1438 3.94536L20.104 4.17959C19.394 4.33953 18.8395 4.89398 18.6796 5.60398L18.4454 6.6438C18.3984 6.85206 18.2135 7 18 7C17.7865 7 17.6016 6.85206 17.5546 6.6438L17.3204 5.60398C17.1605 4.89398 16.606 4.33953 15.896 4.17959L14.8562 3.94536C14.6479 3.89845 14.5 3.71348 14.5 3.5C14.5 3.28652 14.6479 3.10155 14.8562 3.05464L15.896 2.82041C16.606 2.66047 17.1605 2.10602 17.3204 1.39601L17.5546 0.356199C17.6016 0.147941 17.7865 0 18 0Z" fill="#D6F782"/>
<path d="M3.5 14.5C3.71348 14.5 3.89845 14.6479 3.94536 14.8562L4.17959 15.896C4.33953 16.606 4.89398 17.1605 5.60398 17.3204L6.6438 17.5546C6.85206 17.6016 7 17.7865 7 18C7 18.2135 6.85206 18.3984 6.6438 18.4454L5.60398 18.6796C4.89398 18.8395 4.33953 19.394 4.17959 20.104L3.94536 21.1438C3.89845 21.3521 3.71348 21.5 3.5 21.5C3.28652 21.5 3.10155 21.3521 3.05464 21.1438L2.82041 20.104C2.66047 19.394 2.10602 18.8395 1.39601 18.6796L0.356199 18.4454C0.147941 18.3984 0 18.2135 0 18C0 17.7865 0.147941 17.6016 0.356199 17.5546L1.39601 17.3204C2.10602 17.1605 2.66047 16.606 2.82041 15.896L3.05464 14.8562C3.10155 14.6479 3.28652 14.5 3.5 14.5Z" fill="#D6F782"/>
</svg>
