<svg width="40" height="40" viewBox="0 0 40 40" fill="none" xmlns="http://www.w3.org/2000/svg">
<g clip-path="url(#clip0_17499_3714)">
<mask id="mask0_17499_3714" style="mask-type:luminance" maskUnits="userSpaceOnUse" x="0" y="0" width="40" height="40">
<path d="M40 0H0V40H40V0Z" fill="white"/>
</mask>
<g mask="url(#mask0_17499_3714)">
<path d="M20 0C8.955 0 0 8.955 0 20C0 31.045 8.955 40 20 40C31.045 40 40 31.045 40 20C40 8.955 31.045 0 20 0ZM31.6667 17.6022C29.373 17.6075 27.1357 16.8923 25.2705 15.5573V24.8678C25.2693 28.3992 23.0768 31.5588 19.7693 32.7962C16.4618 34.0333 12.7337 33.0885 10.4149 30.4252C8.0961 27.762 7.67343 23.9395 9.35437 20.834C11.0353 17.7285 14.4669 15.992 17.9648 16.4768V21.1597C16.3615 20.6553 14.6155 21.2387 13.6372 22.6053C12.6588 23.972 12.6697 25.8127 13.6641 27.1677C14.6584 28.5228 16.4111 29.0853 18.0085 28.5622C19.6058 28.039 20.686 26.5487 20.686 24.8678V6.66667H25.2705C25.2673 7.05382 25.2998 7.44043 25.3675 7.82163C25.6895 9.54148 26.7052 11.0529 28.1762 12.0007C29.2115 12.6853 30.4253 13.0502 31.6667 13.05V17.6022Z" fill="#4F58B5"/>
</g>
</g>
<defs>
<clipPath id="clip0_17499_3714">
<rect width="40" height="40" fill="white"/>
</clipPath>
</defs>
</svg>
