<svg width="18" height="18" viewBox="0 0 18 18" fill="none" xmlns="http://www.w3.org/2000/svg">
<path d="M8.95801 0C9.42561 1.00331e-07 9.8066 0.19641 10.1533 0.460938C10.478 0.708677 10.8359 1.06727 11.2549 1.48633L11.2852 1.51562C11.7139 1.94428 12.0879 2.11328 12.665 2.11328C12.7371 2.11327 12.8285 2.11034 12.9316 2.10742C13.1938 2.1 13.5329 2.09025 13.8291 2.11523C14.2637 2.15193 14.8085 2.269 15.2236 2.68066C15.642 3.09555 15.762 3.6427 15.7998 4.08008C15.8256 4.37902 15.816 4.72125 15.8086 4.98535C15.8057 5.08798 15.8027 5.17887 15.8027 5.25098C15.8027 5.62667 15.8446 5.83721 15.917 6.00293C15.9913 6.173 16.1226 6.35307 16.4004 6.63086L16.4297 6.66113C16.8487 7.08015 17.2073 7.438 17.4551 7.7627C17.7196 8.10941 17.916 8.49039 17.916 8.95801C17.916 9.4256 17.7196 9.8066 17.4551 10.1533C17.2073 10.4781 16.8489 10.8367 16.4297 11.2559L16.4004 11.2852C16.1226 11.5629 15.9913 11.743 15.917 11.9131C15.8446 12.0788 15.8027 12.2894 15.8027 12.665C15.8027 12.7372 15.8057 12.8289 15.8086 12.9316C15.816 13.1957 15.8256 13.5371 15.7998 13.8359C15.762 14.2733 15.642 14.8205 15.2236 15.2354C14.8085 15.647 14.2637 15.7641 13.8291 15.8008C13.5329 15.8258 13.1938 15.816 12.9316 15.8086C12.8285 15.8057 12.7371 15.8027 12.665 15.8027C12.2974 15.8027 12.0904 15.8401 11.9277 15.9072C11.7652 15.9743 11.5909 16.0937 11.3291 16.3555C11.2732 16.4114 11.2002 16.491 11.1152 16.582C10.9236 16.7874 10.6741 17.0544 10.4414 17.2578C10.0883 17.5665 9.58169 17.916 8.95801 17.916C8.33433 17.916 7.82776 17.5665 7.47461 17.2578C7.2419 17.0544 6.99241 16.7874 6.80078 16.582C6.71582 16.491 6.64282 16.4114 6.58691 16.3555C6.32511 16.0937 6.15079 15.9743 5.98828 15.9072C5.82562 15.8401 5.61865 15.8027 5.25098 15.8027C5.1789 15.8027 5.08752 15.8057 4.98438 15.8086C4.72217 15.816 4.38309 15.8258 4.08691 15.8008C3.6523 15.7641 3.10755 15.647 2.69238 15.2354C2.274 14.8205 2.15404 14.2733 2.11621 13.8359C2.0904 13.5371 2.09999 13.1957 2.10742 12.9316C2.11032 12.8288 2.11327 12.7373 2.11328 12.665C2.11328 12.2894 2.07141 12.0788 1.99902 11.9131C1.92468 11.743 1.79339 11.5629 1.51562 11.2852L1.48633 11.2559C1.06713 10.8367 0.708741 10.4781 0.460938 10.1533C0.19641 9.8066 1.24778e-05 9.4256 0 8.95801C6.50642e-06 8.49041 0.196415 8.10941 0.460938 7.7627C0.708676 7.438 1.06727 7.08015 1.48633 6.66113L1.51562 6.63086C1.94437 6.20205 2.11328 5.8279 2.11328 5.25098C2.11327 5.1789 2.11034 5.08752 2.10742 4.98438C2.1 4.72217 2.09025 4.3831 2.11523 4.08691C2.15193 3.6523 2.26901 3.10755 2.68066 2.69238C3.09555 2.27401 3.64269 2.15404 4.08008 2.11621C4.37887 2.0904 4.72033 2.09999 4.98438 2.10742C5.08723 2.11032 5.17873 2.11327 5.25098 2.11328C5.82789 2.11328 6.20206 1.94435 6.63086 1.51562L6.66113 1.48633C7.08015 1.06727 7.43799 0.708677 7.7627 0.460938C8.10942 0.19641 8.4904 0 8.95801 0ZM12.1973 6.49023C11.9847 6.08207 11.4814 5.9232 11.0732 6.13574C9.88328 6.75552 8.91202 7.9424 8.27051 8.87793C8.08992 9.14131 7.9291 9.39386 7.79102 9.62207C7.69678 9.54231 7.60538 9.4704 7.52148 9.40723C7.34238 9.27239 7.1812 9.16622 7.06348 9.09277L6.85742 8.9707L6.85547 8.96973C6.45111 8.75036 5.94519 8.90039 5.72559 9.30469C5.50617 9.70898 5.65642 10.2149 6.06055 10.4346C6.18041 10.5104 6.43988 10.6775 6.51953 10.7393C6.79729 10.9484 7.08014 11.211 7.25195 11.4844C7.41332 11.7413 7.70198 11.8901 8.00488 11.873C8.3077 11.8559 8.57754 11.6756 8.70898 11.4023C8.7516 11.3165 8.86022 11.1036 8.95215 10.9414C9.11466 10.649 9.35129 10.2494 9.64551 9.82031C10.2539 8.93305 11.0329 8.03623 11.8428 7.61426C12.2509 7.40171 12.4096 6.89837 12.1973 6.49023Z" fill="#00A81C"/>
</svg>
