<svg width="40" height="40" viewBox="0 0 40 40" fill="none" xmlns="http://www.w3.org/2000/svg">
<g clip-path="url(#clip0_17499_3707)">
<mask id="mask0_17499_3707" style="mask-type:luminance" maskUnits="userSpaceOnUse" x="0" y="0" width="40" height="40">
<path d="M40 0H0V40H40V0Z" fill="white"/>
</mask>
<g mask="url(#mask0_17499_3707)">
<path d="M20 0C8.955 0 0 8.955 0 20C0 31.045 8.955 40 20 40C31.045 40 40 31.045 40 20C40 8.955 31.045 0 20 0ZM25 13.3333H22.75C21.8533 13.3333 21.6667 13.7017 21.6667 14.63V16.6667H25L24.6517 20H21.6667V31.6667H16.6667V20H13.3333V16.6667H16.6667V12.82C16.6667 9.87167 18.2183 8.33333 21.715 8.33333H25V13.3333Z" fill="#4F58B5"/>
</g>
</g>
<defs>
<clipPath id="clip0_17499_3707">
<rect width="40" height="40" fill="white"/>
</clipPath>
</defs>
</svg>
