<svg width="22" height="21" viewBox="0 0 22 21" fill="none" xmlns="http://www.w3.org/2000/svg">
<path fill-rule="evenodd" clip-rule="evenodd" d="M9.11215 0.26487C10.1764 -0.0882908 11.3233 -0.088289 12.3875 0.26487C13.4476 0.616732 14.2799 1.45176 15.1161 2.62424C15.9494 3.79288 16.8705 5.4223 18.0575 7.52268L18.1043 7.60471C19.2915 9.70533 20.2121 11.3351 20.786 12.6565C21.3626 13.9843 21.6499 15.1313 21.4207 16.2326C21.19 17.3413 20.6212 18.3495 19.7928 19.1115C18.9663 19.8718 17.8407 20.1928 16.4237 20.3469C15.0146 20.5001 13.1711 20.5002 10.7987 20.5002H10.701C8.32862 20.5002 6.48512 20.5001 5.07601 20.3469C3.65898 20.1928 2.53339 19.8718 1.70687 19.1115C0.878508 18.3495 0.309687 17.3413 0.0789441 16.2326C-0.15021 15.1313 0.137055 13.9843 0.71371 12.6565C1.28758 11.3351 2.2082 9.70533 3.39535 7.60471L3.44223 7.52268C4.62923 5.4223 5.55026 3.79288 6.38363 2.62424C7.21977 1.45176 8.05213 0.616732 9.11215 0.26487ZM10.745 14.2502C10.1953 14.2504 9.74984 14.6981 9.74984 15.2502C9.74984 15.8024 10.1953 16.25 10.745 16.2502H10.7547C11.3044 16.25 11.7498 15.8024 11.7498 15.2502C11.7498 14.6981 11.3044 14.2504 10.7547 14.2502H10.745ZM10.7498 6.25022C10.1976 6.25022 9.74984 6.69794 9.74984 7.25022V11.2502C9.74984 11.8025 10.1976 12.2502 10.7498 12.2502C11.3021 12.2502 11.7498 11.8025 11.7498 11.2502V7.25022C11.7498 6.69794 11.3021 6.25022 10.7498 6.25022Z" fill="#DF0C3D"/>
</svg>
