<svg width="22" height="19" viewBox="0 0 22 19" fill="none" xmlns="http://www.w3.org/2000/svg">
<path fill-rule="evenodd" clip-rule="evenodd" d="M0 9.875C0 8.28718 1.24721 7 2.78571 7C4.83706 7 6.5 8.71624 6.5 10.8333V14.6667C6.5 16.7838 4.83706 18.5 2.78571 18.5C1.24721 18.5 0 17.2128 0 15.625V9.875ZM2.78571 8.91667C2.27288 8.91667 1.85714 9.34573 1.85714 9.875V15.625C1.85714 16.1543 2.27288 16.5833 2.78571 16.5833C3.81139 16.5833 4.64286 15.7252 4.64286 14.6667V10.8333C4.64286 9.77479 3.81139 8.91667 2.78571 8.91667Z" fill="#D6F782"/>
<path d="M11.549 0.434964C12.2798 -0.201054 13.4025 -0.132896 14.0464 0.595643C14.1597 0.737481 14.4204 1.08278 14.557 1.32928C15.1867 2.36966 15.3786 3.60883 15.0892 4.78619C15.0568 4.91778 15.0156 5.05082 14.9523 5.25543L14.6789 6.13815C14.5654 6.50473 14.4968 6.72924 14.4617 6.89731C14.4355 6.99001 14.4485 7.17827 14.7101 7.18976C14.8902 7.20582 15.5957 7.20652 15.9894 7.20652C17.2266 7.2065 18.2311 7.20648 18.9988 7.30811C19.7837 7.412 20.4962 7.64131 20.9815 8.24953C21.0773 8.36962 21.1627 8.49756 21.2367 8.63205C21.6163 9.32173 21.5359 10.0647 21.3073 10.8125C21.085 11.54 20.6688 12.436 20.159 13.5337C19.6859 14.5524 19.266 15.4565 18.8901 16.0907C18.5012 16.7467 18.0855 17.2624 17.5109 17.6546C16.8378 18.114 15.9403 18.3544 15.1721 18.4283C14.4271 18.5 13.5121 18.5 12.3644 18.5C10.9803 18.5 9.26475 18.5 8.39051 18.3861C7.48584 18.2683 6.72376 18.0167 6.1163 17.4281C5.50553 16.8363 5.24136 16.0885 5.11819 15.2008C5.00001 14.3491 5.00003 13.2673 5.00005 11.9301L5.00003 10.7575C4.99964 9.43951 4.99939 8.57815 5.30913 7.77941C5.61812 6.98263 6.20104 6.3375 7.09723 5.34569L11.3074 0.683681C11.3869 0.595416 11.4682 0.505263 11.549 0.434964Z" fill="#D6F782"/>
</svg>
