<svg width="49" height="33" viewBox="0 0 49 33" fill="none" xmlns="http://www.w3.org/2000/svg">
<rect y="0.782715" width="49" height="32" rx="8" fill="#F2F2F2"/>
<path fill-rule="evenodd" clip-rule="evenodd" d="M37.7603 25.51H11.2397C10.2101 25.51 9.36765 24.6893 9.36765 23.6863V9.87914C9.36765 8.8761 10.2101 8.05542 11.2397 8.05542H37.7603C38.7899 8.05542 39.6324 8.8761 39.6324 9.87914V23.6863C39.6324 24.6893 38.7899 25.51 37.7603 25.51Z" fill="#1B5BA6"/>
<path d="M26.7034 12.489C27.5247 12.3397 28.3278 12.4339 29.1125 12.7205C29.1342 12.7284 29.1542 12.7419 29.1868 12.7585C29.0802 13.2824 28.9753 13.7956 28.8694 14.3162C28.4572 14.1273 28.0372 14.0032 27.595 13.9753C27.268 13.9548 26.9425 13.9584 26.6428 14.1228C26.5609 14.1677 26.4823 14.2306 26.4192 14.3015C26.2459 14.4964 26.2358 14.762 26.4241 14.9392C26.6009 15.1055 26.8072 15.2403 27.011 15.3708C27.3205 15.5691 27.6472 15.7395 27.9534 15.9431C29.3418 16.8664 28.923 18.6258 28.0891 19.3357C27.5958 19.7556 27.0279 19.975 26.4124 20.0623C25.5158 20.1892 24.6352 20.0945 23.7786 19.782C23.7348 19.766 23.6926 19.745 23.6409 19.7224C23.7502 19.1843 23.8582 18.6518 23.9709 18.0964C24.0447 18.1319 24.1111 18.1637 24.177 18.196C24.77 18.4867 25.392 18.6154 26.0452 18.5525C26.2823 18.5296 26.5092 18.4628 26.7034 18.3083C27.0114 18.0632 27.0444 17.6629 26.7493 17.4031C26.5459 17.2241 26.3015 17.0958 26.0745 16.947C25.7395 16.7277 25.3798 16.5417 25.0725 16.2859C24.0217 15.4107 24.3462 14.0586 24.969 13.3835C25.4461 12.8664 26.044 12.6089 26.7034 12.489ZM21.1926 12.5593C21.2109 12.5595 21.2295 12.5641 21.2649 12.5691C21.2101 12.7115 21.1594 12.8482 21.1057 12.9832C20.1932 15.279 19.2795 17.575 18.3694 19.8718C18.3306 19.9697 18.2822 20.0055 18.1819 20.0046C17.6299 19.9997 17.0776 19.999 16.5256 20.0046C16.4177 20.0057 16.3709 19.9748 16.343 19.8601C15.873 17.9299 15.394 16.0016 14.929 14.0701C14.8445 13.7196 14.6859 13.4566 14.3586 13.3367C13.8568 13.1527 13.3506 12.9818 12.8459 12.8064C12.7974 12.7895 12.7467 12.779 12.6858 12.7625C12.6989 12.6937 12.7094 12.6405 12.72 12.5876C12.7208 12.5835 12.7254 12.5801 12.7385 12.5632C12.7831 12.5611 12.8384 12.5564 12.8938 12.5564C13.8609 12.5562 14.8281 12.5561 15.7952 12.5574C16.274 12.558 16.5871 12.8231 16.678 13.323C16.9258 14.6862 17.1679 16.0509 17.4124 17.4148C17.4216 17.4661 17.4346 17.5167 17.4563 17.6121C17.5645 17.3253 17.6576 17.0785 17.7502 16.8318C18.2713 15.4442 18.7928 14.0567 19.3127 12.6687C19.3387 12.5993 19.3654 12.5537 19.4514 12.5544C20.0316 12.5596 20.6124 12.5583 21.1926 12.5593ZM33.72 12.5623C33.8082 12.5617 33.847 12.583 33.8674 12.6863C34.1809 14.2831 34.5011 15.8794 34.8186 17.4753C34.9749 18.2609 35.1294 19.0469 35.2844 19.8328C35.2928 19.8757 35.2979 19.9195 35.3088 19.991C35.0939 19.991 34.9015 19.9918 34.7092 19.9919C34.3931 19.9923 34.0761 19.9895 33.76 19.9949C33.6669 19.9964 33.6259 19.9603 33.6086 19.865C33.5565 19.5781 33.4941 19.2929 33.4446 19.0056C33.4274 18.9063 33.3868 18.8772 33.2942 18.8777C32.5914 18.8812 31.8886 18.8826 31.1858 18.8777C31.0846 18.877 31.0465 18.921 31.0168 19.0115C30.9202 19.3065 30.8199 19.6002 30.7131 19.8914C30.6972 19.9348 30.6401 19.9915 30.6018 19.9919C29.9987 19.9982 29.3955 19.9959 28.7708 19.9958C28.9015 19.6668 29.0253 19.3536 29.1497 19.0408C29.9205 17.102 30.6921 15.1635 31.4622 13.2244C31.6616 12.7222 31.8848 12.5635 32.4036 12.5632C32.8424 12.5631 33.2812 12.5652 33.72 12.5623ZM22.3801 19.99H20.5559C21.0588 17.5161 21.561 15.0466 22.0647 12.5691H23.886C23.3835 15.0463 22.8825 17.5133 22.3801 19.99ZM31.5872 17.3621H33.1155C32.9325 16.4367 32.7519 15.5243 32.5715 14.6121C32.5592 14.6108 32.5468 14.6094 32.5344 14.6082C32.2206 15.5207 31.9066 16.4334 31.5872 17.3621Z" fill="white"/>
</svg>
