<svg width="18" height="18" viewBox="0 0 18 18" fill="none" xmlns="http://www.w3.org/2000/svg">
<path d="M3.99128 7.2622C5.80154 4.05899 6.70667 2.45739 7.9487 2.04511C8.63198 1.8183 9.36802 1.8183 10.0513 2.04511C11.2933 2.45739 12.1985 4.05899 14.0087 7.2622C15.819 10.4654 16.7241 12.067 16.4526 13.372C16.3032 14.0899 15.9352 14.7411 15.4013 15.2323C14.4308 16.125 12.6205 16.125 9 16.125C5.37949 16.125 3.56923 16.125 2.59872 15.2323C2.06481 14.7411 1.69679 14.0899 1.54742 13.372C1.2759 12.067 2.18102 10.4654 3.99128 7.2622Z" stroke="#DF0C3D" stroke-width="1.5"/>
<path d="M8.994 12H9.00073" stroke="#DF0C3D" stroke-width="2" stroke-linecap="round" stroke-linejoin="round"/>
<path d="M9 9.75L9 6.75" stroke="#DF0C3D" stroke-width="1.5" stroke-linecap="round" stroke-linejoin="round"/>
</svg>
