<svg width="49" height="33" viewBox="0 0 49 33" fill="none" xmlns="http://www.w3.org/2000/svg">
<rect y="0.782715" width="49" height="32" rx="8" fill="#F2F2F2"/>
<path fill-rule="evenodd" clip-rule="evenodd" d="M37.7603 25.5102H11.2397C10.2101 25.5102 9.36765 24.6895 9.36765 23.6865V9.87938C9.36765 8.87634 10.2101 8.05566 11.2397 8.05566H37.7603C38.7899 8.05566 39.6324 8.87634 39.6324 9.87938V23.6865C39.6324 24.6895 38.7899 25.5102 37.7603 25.5102Z" fill="#00C800"/>
<path fill-rule="evenodd" clip-rule="evenodd" d="M30.9853 15.9332C30.9853 19.079 28.0817 21.6291 24.5 21.6291C23.7127 21.6291 22.9587 21.506 22.2609 21.2804C22.1743 21.2525 22.0812 21.2617 22.0023 21.3082L20.4849 22.2034C20.2961 22.3152 20.0728 22.133 20.1265 21.9113L20.4311 20.6451C20.4652 20.5051 20.4126 20.3577 20.301 20.2742C18.9021 19.2294 18.0147 17.672 18.0147 15.9332C18.0147 12.7874 20.9183 10.2373 24.5 10.2373C26.6828 10.2373 28.6137 11.1843 29.7892 12.6365L23.1681 15.7462C23.0646 15.7949 22.9448 15.7836 22.8512 15.7167L21.1958 14.531C21.094 14.4579 20.9651 14.571 21.014 14.691L22.2236 17.6585C22.3213 17.8976 22.5934 17.9928 22.806 17.8628L30.2534 13.3022C30.721 14.0892 30.9853 14.984 30.9853 15.9332Z" fill="white"/>
</svg>
