<svg width="20" height="21" viewBox="0 0 20 21" fill="none" xmlns="http://www.w3.org/2000/svg">
<g clip-path="url(#clip0_16570_15683)">
<path d="M19.6016 5.9373C19.4885 5.51182 19.2657 5.12349 18.9554 4.81118C18.6451 4.49888 18.2582 4.27356 17.8334 4.15776C16.2698 3.7373 10.0198 3.7373 10.0198 3.7373C10.0198 3.7373 3.76978 3.7373 2.20614 4.15776C1.78138 4.27356 1.39449 4.49888 1.08418 4.81118C0.773872 5.12349 0.55103 5.51182 0.437957 5.9373C0.0197754 7.50776 0.0197754 10.7828 0.0197754 10.7828C0.0197754 10.7828 0.0197754 14.0578 0.437957 15.6282C0.55103 16.0537 0.773872 16.442 1.08418 16.7543C1.39449 17.0666 1.78138 17.292 2.20614 17.4078C3.76978 17.8282 10.0198 17.8282 10.0198 17.8282C10.0198 17.8282 16.2698 17.8282 17.8334 17.4078C18.2582 17.292 18.6451 17.0666 18.9554 16.7543C19.2657 16.442 19.4885 16.0537 19.6016 15.6282C20.0198 14.0578 20.0198 10.7828 20.0198 10.7828C20.0198 10.7828 20.0198 7.50776 19.6016 5.9373Z" fill="#FF0302"/>
<path d="M7.97437 13.7566V7.80884L13.2016 10.7827L7.97437 13.7566Z" fill="#FEFEFE"/>
</g>
<defs>
<clipPath id="clip0_16570_15683">
<rect width="20" height="20" fill="white" transform="translate(0 0.782715)"/>
</clipPath>
</defs>
</svg>
